%TF.GenerationSoftware,KiCad,Pcbnew,10.0.5*%
%TF.CreationDate,2026-08-24T16:38:39-07:00*%
%TF.ProjectId,sparc_pcb_v2,73706172-635f-4706-9362-5f76322e6b69,rev?*%
%TF.SameCoordinates,Original*%
%TF.FileFunction,Soldermask,Bot*%
%TF.FilePolarity,Negative*%
%FSLAX46Y46*%
G04 Gerber Fmt 4.6, Leading zero omitted, Abs format (unit mm)*
G04 Created by KiCad (PCBNEW 10.0.5) date 2026-08-24 16:38:39*
%MOMM*%
%LPD*%
G01*
G04 APERTURE LIST*
G04 Aperture macros list*
%AMRoundRect*
0 Rectangle with rounded corners*
0 $1 Rounding radius*
0 $2 $3 $4 $5 $6 $7 $8 $9 X,Y pos of 4 corners*
0 Add a 4 corners polygon primitive as box body*
4,1,4,$2,$3,$4,$5,$6,$7,$8,$9,$2,$3,0*
0 Add four circle primitives for the rounded corners*
1,1,$1+$1,$2,$3*
1,1,$1+$1,$4,$5*
1,1,$1+$1,$6,$7*
1,1,$1+$1,$8,$9*
0 Add four rect primitives between the rounded corners*
20,1,$1+$1,$2,$3,$4,$5,0*
20,1,$1+$1,$4,$5,$6,$7,0*
20,1,$1+$1,$6,$7,$8,$9,0*
20,1,$1+$1,$8,$9,$2,$3,0*%
G04 Aperture macros list end*
%ADD10C,2.500000*%
%ADD11RoundRect,0.375000X0.875000X-0.875000X0.875000X0.875000X-0.875000X0.875000X-0.875000X-0.875000X0*%
%ADD12RoundRect,0.250000X0.725000X-0.600000X0.725000X0.600000X-0.725000X0.600000X-0.725000X-0.600000X0*%
%ADD13O,1.950000X1.700000*%
%ADD14RoundRect,0.250000X-0.600000X-0.750000X0.600000X-0.750000X0.600000X0.750000X-0.600000X0.750000X0*%
%ADD15O,1.700000X2.000000*%
%ADD16RoundRect,0.250000X-0.600000X-0.725000X0.600000X-0.725000X0.600000X0.725000X-0.600000X0.725000X0*%
%ADD17O,1.700000X1.950000*%
%ADD18RoundRect,0.250000X0.412500X0.650000X-0.412500X0.650000X-0.412500X-0.650000X0.412500X-0.650000X0*%
%ADD19RoundRect,0.250000X0.400000X0.625000X-0.400000X0.625000X-0.400000X-0.625000X0.400000X-0.625000X0*%
%ADD20R,1.500000X0.900000*%
%ADD21R,0.900000X1.500000*%
%ADD22C,0.600000*%
%ADD23R,4.200000X4.200000*%
G04 APERTURE END LIST*
D10*
%TO.C,TP4056*%
X145840000Y-107370000D03*
D11*
X145840000Y-104370000D03*
%TD*%
D12*
%TO.C,CP2102*%
X117000000Y-84500000D03*
D13*
X117000000Y-82000000D03*
X117000000Y-79500000D03*
X117000000Y-77000000D03*
%TD*%
D14*
%TO.C,Switch1*%
X135600000Y-105460000D03*
D15*
X138100000Y-105460000D03*
%TD*%
D12*
%TO.C,VL53L0X1*%
X117000000Y-98500000D03*
D13*
X117000000Y-96000000D03*
X117000000Y-93500000D03*
X117000000Y-91000000D03*
%TD*%
D16*
%TO.C,NeoPixel1*%
X121500000Y-105500000D03*
D17*
X124000000Y-105500000D03*
X126500000Y-105500000D03*
%TD*%
D18*
%TO.C,C8*%
X146000000Y-77500000D03*
X142875000Y-77500000D03*
%TD*%
D19*
%TO.C,R9*%
X123100000Y-95500000D03*
X120000000Y-95500000D03*
%TD*%
D20*
%TO.C,U2*%
X139775000Y-75015000D03*
X139775000Y-76285000D03*
X139775000Y-77555000D03*
X139775000Y-78825000D03*
X139775000Y-80095000D03*
X139775000Y-81365000D03*
X139775000Y-82635000D03*
X139775000Y-83905000D03*
X139775000Y-85175000D03*
X139775000Y-86445000D03*
X139775000Y-87715000D03*
X139775000Y-88985000D03*
X139775000Y-90255000D03*
X139775000Y-91525000D03*
D21*
X136735000Y-92775000D03*
X135465000Y-92775000D03*
X134195000Y-92775000D03*
X132925000Y-92775000D03*
X131655000Y-92775000D03*
X130385000Y-92775000D03*
X129115000Y-92775000D03*
X127845000Y-92775000D03*
X126575000Y-92775000D03*
X125305000Y-92775000D03*
D20*
X122275000Y-91525000D03*
X122275000Y-90255000D03*
X122275000Y-88985000D03*
X122275000Y-87715000D03*
X122275000Y-86445000D03*
X122275000Y-85175000D03*
X122275000Y-83905000D03*
X122275000Y-82635000D03*
X122275000Y-81365000D03*
X122275000Y-80095000D03*
X122275000Y-78825000D03*
X122275000Y-77555000D03*
X122275000Y-76285000D03*
X122275000Y-75015000D03*
D22*
X133230000Y-83117500D03*
X133230000Y-81592500D03*
X132467500Y-83880000D03*
X132467500Y-82355000D03*
X132467500Y-80830000D03*
X131705000Y-83117500D03*
D23*
X131705000Y-82355000D03*
D22*
X131705000Y-81592500D03*
X130942500Y-83880000D03*
X130942500Y-82355000D03*
X130942500Y-80830000D03*
X130180000Y-83117500D03*
X130180000Y-81592500D03*
%TD*%
D19*
%TO.C,R8*%
X123000000Y-98500000D03*
X119900000Y-98500000D03*
%TD*%
M02*
