M48
; DRILL file KiCad 10.0.5 date 2026-08-24T16:38:40
; FORMAT={-:-/ absolute / metric / decimal}
; #@! TF.CreationDate,2026-08-24T16:38:40-07:00
; #@! TF.GenerationSoftware,Kicad,Pcbnew,10.0.5
; #@! TF.FileFunction,MixedPlating,1,2
FMAT,2
METRIC
; #@! TA.AperFunction,Plated,PTH,ViaDrill
T1C0.300
; #@! TA.AperFunction,Plated,PTH,ComponentDrill
T2C0.300
; #@! TA.AperFunction,Plated,PTH,ComponentDrill
T3C0.950
; #@! TA.AperFunction,Plated,PTH,ComponentDrill
T4C1.000
%
G90
G05
T1
X123.5Y-92.5
X123.81Y-76.29
X126.69Y-94.13
X138.25Y-77.55
X138.54Y-89.07
X141.14Y-76.48
T2
X130.18Y-81.593
X130.18Y-83.117
X130.942Y-80.83
X130.942Y-82.355
X130.942Y-83.88
X131.705Y-81.593
X131.705Y-83.117
X132.468Y-80.83
X132.468Y-82.355
X132.468Y-83.88
X133.23Y-81.593
X133.23Y-83.117
T3
X117.0Y-77.0
X117.0Y-79.5
X117.0Y-82.0
X117.0Y-84.5
X117.0Y-91.0
X117.0Y-93.5
X117.0Y-96.0
X117.0Y-98.5
X121.5Y-105.5
X124.0Y-105.5
X126.5Y-105.5
T4
X135.6Y-105.46
X138.1Y-105.46
X145.84Y-104.37
X145.84Y-107.37
M30
