%TF.GenerationSoftware,KiCad,Pcbnew,10.0.5*%
%TF.CreationDate,2026-08-24T16:38:39-07:00*%
%TF.ProjectId,sparc_pcb_v2,73706172-635f-4706-9362-5f76322e6b69,rev?*%
%TF.SameCoordinates,Original*%
%TF.FileFunction,Copper,L1,Top*%
%TF.FilePolarity,Positive*%
%FSLAX46Y46*%
G04 Gerber Fmt 4.6, Leading zero omitted, Abs format (unit mm)*
G04 Created by KiCad (PCBNEW 10.0.5) date 2026-08-24 16:38:39*
%MOMM*%
%LPD*%
G01*
G04 APERTURE LIST*
G04 Aperture macros list*
%AMRoundRect*
0 Rectangle with rounded corners*
0 $1 Rounding radius*
0 $2 $3 $4 $5 $6 $7 $8 $9 X,Y pos of 4 corners*
0 Add a 4 corners polygon primitive as box body*
4,1,4,$2,$3,$4,$5,$6,$7,$8,$9,$2,$3,0*
0 Add four circle primitives for the rounded corners*
1,1,$1+$1,$2,$3*
1,1,$1+$1,$4,$5*
1,1,$1+$1,$6,$7*
1,1,$1+$1,$8,$9*
0 Add four rect primitives between the rounded corners*
20,1,$1+$1,$2,$3,$4,$5,0*
20,1,$1+$1,$4,$5,$6,$7,0*
20,1,$1+$1,$6,$7,$8,$9,0*
20,1,$1+$1,$8,$9,$2,$3,0*%
G04 Aperture macros list end*
%TA.AperFunction,SMDPad,CuDef*%
%ADD10RoundRect,0.250000X0.650000X-0.412500X0.650000X0.412500X-0.650000X0.412500X-0.650000X-0.412500X0*%
%TD*%
%TA.AperFunction,SMDPad,CuDef*%
%ADD11RoundRect,0.250000X-0.650000X0.412500X-0.650000X-0.412500X0.650000X-0.412500X0.650000X0.412500X0*%
%TD*%
%TA.AperFunction,SMDPad,CuDef*%
%ADD12RoundRect,0.150000X0.150000X-0.512500X0.150000X0.512500X-0.150000X0.512500X-0.150000X-0.512500X0*%
%TD*%
%TA.AperFunction,ComponentPad*%
%ADD13C,2.500000*%
%TD*%
%TA.AperFunction,ComponentPad*%
%ADD14RoundRect,0.375000X0.875000X-0.875000X0.875000X0.875000X-0.875000X0.875000X-0.875000X-0.875000X0*%
%TD*%
%TA.AperFunction,SMDPad,CuDef*%
%ADD15RoundRect,0.250000X0.400000X0.625000X-0.400000X0.625000X-0.400000X-0.625000X0.400000X-0.625000X0*%
%TD*%
%TA.AperFunction,ComponentPad*%
%ADD16RoundRect,0.250000X0.725000X-0.600000X0.725000X0.600000X-0.725000X0.600000X-0.725000X-0.600000X0*%
%TD*%
%TA.AperFunction,ComponentPad*%
%ADD17O,1.950000X1.700000*%
%TD*%
%TA.AperFunction,SMDPad,CuDef*%
%ADD18RoundRect,0.250000X0.625000X-0.400000X0.625000X0.400000X-0.625000X0.400000X-0.625000X-0.400000X0*%
%TD*%
%TA.AperFunction,SMDPad,CuDef*%
%ADD19R,1.000000X1.250000*%
%TD*%
%TA.AperFunction,ComponentPad*%
%ADD20RoundRect,0.250000X-0.600000X-0.750000X0.600000X-0.750000X0.600000X0.750000X-0.600000X0.750000X0*%
%TD*%
%TA.AperFunction,ComponentPad*%
%ADD21O,1.700000X2.000000*%
%TD*%
%TA.AperFunction,SMDPad,CuDef*%
%ADD22RoundRect,0.250000X-0.400000X-0.625000X0.400000X-0.625000X0.400000X0.625000X-0.400000X0.625000X0*%
%TD*%
%TA.AperFunction,SMDPad,CuDef*%
%ADD23RoundRect,0.250000X-0.412500X-0.650000X0.412500X-0.650000X0.412500X0.650000X-0.412500X0.650000X0*%
%TD*%
%TA.AperFunction,SMDPad,CuDef*%
%ADD24RoundRect,0.250001X-0.462499X-0.624999X0.462499X-0.624999X0.462499X0.624999X-0.462499X0.624999X0*%
%TD*%
%TA.AperFunction,ComponentPad*%
%ADD25RoundRect,0.250000X-0.600000X-0.725000X0.600000X-0.725000X0.600000X0.725000X-0.600000X0.725000X0*%
%TD*%
%TA.AperFunction,ComponentPad*%
%ADD26O,1.700000X1.950000*%
%TD*%
%TA.AperFunction,HeatsinkPad*%
%ADD27C,0.600000*%
%TD*%
%TA.AperFunction,ViaPad*%
%ADD28C,0.600000*%
%TD*%
%TA.AperFunction,Conductor*%
%ADD29C,0.500000*%
%TD*%
%TA.AperFunction,Conductor*%
%ADD30C,0.250000*%
%TD*%
G04 APERTURE END LIST*
D10*
%TO.P,C7,1*%
%TO.N,+3.3V*%
X146830000Y-79472500D03*
%TO.P,C7,2*%
%TO.N,GND*%
X146830000Y-76347500D03*
%TD*%
D11*
%TO.P,C6,1*%
%TO.N,GND*%
X143080000Y-76417500D03*
%TO.P,C6,2*%
%TO.N,+3.3V*%
X143080000Y-79542500D03*
%TD*%
D12*
%TO.P,LDO1,1,VIN_1*%
%TO.N,TP4056 OUT+*%
X144260000Y-91227500D03*
%TO.P,LDO1,2,GND_2*%
%TO.N,GND*%
X145210000Y-91227500D03*
%TO.P,LDO1,3,EN_3*%
%TO.N,TP4056 OUT+*%
X146160000Y-91227500D03*
%TO.P,LDO1,4,NC_4*%
%TO.N,unconnected-(LDO1-NC-Pad4)*%
X146160000Y-88952500D03*
%TO.P,LDO1,5,VOUT_5*%
%TO.N,+3.3V*%
X144260000Y-88952500D03*
%TD*%
D13*
%TO.P,TP4056,1,OUT+_1*%
%TO.N,Net-(Switch1-B)*%
X145840000Y-107370000D03*
D14*
%TO.P,TP4056,4,OUT-_4*%
%TO.N,GND*%
X145840000Y-104370000D03*
%TD*%
D15*
%TO.P,R4,1*%
%TO.N,Net-(U2-EN)*%
X137550000Y-76000000D03*
%TO.P,R4,2*%
%TO.N,+3.3V*%
X134450000Y-76000000D03*
%TD*%
D16*
%TO.P,CP2102,1,VCC_1*%
%TO.N,unconnected-(CP2102-VCC-Pad1)*%
X117000000Y-84500000D03*
D17*
%TO.P,CP2102,2,GND_2*%
%TO.N,GND*%
X117000000Y-82000000D03*
%TO.P,CP2102,3,TXD_3*%
%TO.N,Net-(CP2102-TXD)*%
X117000000Y-79500000D03*
%TO.P,CP2102,4,RXD_4*%
%TO.N,Net-(CP2102-RXD)*%
X117000000Y-77000000D03*
%TD*%
D11*
%TO.P,C5,1*%
%TO.N,+3.3V*%
X123500000Y-94937500D03*
%TO.P,C5,2*%
%TO.N,GND*%
X123500000Y-98062500D03*
%TD*%
D18*
%TO.P,R6,1*%
%TO.N,Net-(NeoPixel1-DIN)*%
X128850000Y-98060000D03*
%TO.P,R6,2*%
%TO.N,Net-(U2-IO15)*%
X128850000Y-94960000D03*
%TD*%
D19*
%TO.P,SW4,1,1_1*%
%TO.N,GND*%
X136500000Y-86250000D03*
%TO.P,SW4,2,2_2*%
%TO.N,Net-(U2-EN)*%
X136500000Y-78500000D03*
%TD*%
%TO.P,SW5,1,1_1*%
%TO.N,GND*%
X126500000Y-86375000D03*
%TO.P,SW5,2,2_2*%
%TO.N,Net-(U2-IO0)*%
X126500000Y-78625000D03*
%TD*%
D20*
%TO.P,Switch1,1,A_1*%
%TO.N,TP4056 OUT+*%
X135600000Y-105460000D03*
D21*
%TO.P,Switch1,2,B_2*%
%TO.N,Net-(Switch1-B)*%
X138100000Y-105460000D03*
%TD*%
D16*
%TO.P,VL53L0X1,1,+3V3_1*%
%TO.N,+3.3V*%
X117000000Y-98500000D03*
D17*
%TO.P,VL53L0X1,2,GND_2*%
%TO.N,GND*%
X117000000Y-96000000D03*
%TO.P,VL53L0X1,3,SCL_3*%
%TO.N,Net-(U2-IO17)*%
X117000000Y-93500000D03*
%TO.P,VL53L0X1,4,SDA_4*%
%TO.N,Net-(U2-IO16)*%
X117000000Y-91000000D03*
%TD*%
D22*
%TO.P,R7,1*%
%TO.N,Net-(D1-A)*%
X132950000Y-90500000D03*
%TO.P,R7,2*%
%TO.N,Net-(U2-IO27)*%
X136050000Y-90500000D03*
%TD*%
D15*
%TO.P,R5,1*%
%TO.N,+3.3V*%
X128050000Y-76000000D03*
%TO.P,R5,2*%
%TO.N,Net-(U2-IO0)*%
X124950000Y-76000000D03*
%TD*%
D23*
%TO.P,C4,1*%
%TO.N,TP4056 OUT+*%
X143567500Y-94662500D03*
%TO.P,C4,2*%
%TO.N,GND*%
X146692500Y-94662500D03*
%TD*%
%TO.P,C3,1*%
%TO.N,+3.3V*%
X143567500Y-85592500D03*
%TO.P,C3,2*%
%TO.N,GND*%
X146692500Y-85592500D03*
%TD*%
D24*
%TO.P,D1,1,K_1*%
%TO.N,GND*%
X127012500Y-90500000D03*
%TO.P,D1,2,A_2*%
%TO.N,Net-(D1-A)*%
X129987500Y-90500000D03*
%TD*%
D25*
%TO.P,NeoPixel1,1,GND_1*%
%TO.N,GND*%
X121500000Y-105500000D03*
D26*
%TO.P,NeoPixel1,2,+5V_2*%
%TO.N,TP4056 OUT+*%
X124000000Y-105500000D03*
%TO.P,NeoPixel1,3,DIN_3*%
%TO.N,Net-(NeoPixel1-DIN)*%
X126500000Y-105500000D03*
%TD*%
D27*
%TO.P,U2,39,GND_39*%
%TO.N,GND*%
X133230000Y-83117500D03*
X133230000Y-81592500D03*
X132467500Y-83880000D03*
X132467500Y-82355000D03*
X132467500Y-80830000D03*
X131705000Y-83117500D03*
X131705000Y-81592500D03*
X130942500Y-83880000D03*
X130942500Y-82355000D03*
X130942500Y-80830000D03*
X130180000Y-83117500D03*
X130180000Y-81592500D03*
%TD*%
D28*
%TO.N,+3.3V*%
X123500000Y-92500000D03*
X141140000Y-76480000D03*
%TO.N,Net-(U2-EN)*%
X138250000Y-77550000D03*
%TO.N,Net-(U2-IO15)*%
X126690000Y-94130000D03*
%TO.N,Net-(U2-IO0)*%
X123810000Y-76290000D03*
%TO.N,Net-(U2-IO27)*%
X138540000Y-89070000D03*
%TD*%
%TO.N,+3.3V*%
D29*
X143080000Y-79542500D02*
X141140000Y-77602500D01*
X128050000Y-79100000D02*
X125525000Y-81625000D01*
X144260000Y-88952500D02*
X143550000Y-88242500D01*
X143567500Y-80030000D02*
X143080000Y-79542500D01*
X122782500Y-94937500D02*
X119220000Y-98500000D01*
X128050000Y-76000000D02*
X134450000Y-76000000D01*
X146760000Y-79542500D02*
X146830000Y-79472500D01*
X143567500Y-85592500D02*
X143567500Y-80030000D01*
X139121721Y-74461721D02*
X141140000Y-76480000D01*
X125525000Y-81625000D02*
X123500000Y-81625000D01*
X143550000Y-87630000D02*
X143567500Y-87612500D01*
X141140000Y-77602500D02*
X141140000Y-76480000D01*
X123500000Y-92500000D02*
X123500000Y-94937500D01*
D30*
X134450000Y-76350000D02*
X134450000Y-76000000D01*
D29*
X143080000Y-79542500D02*
X146760000Y-79542500D01*
X134450000Y-76000000D02*
X135988279Y-74461721D01*
X143550000Y-88242500D02*
X143550000Y-87630000D01*
X128050000Y-76000000D02*
X128050000Y-79100000D01*
X135988279Y-74461721D02*
X139121721Y-74461721D01*
X119220000Y-98500000D02*
X117000000Y-98500000D01*
X123500000Y-81625000D02*
X123500000Y-92500000D01*
X123500000Y-94937500D02*
X122782500Y-94937500D01*
X143567500Y-87612500D02*
X143567500Y-85592500D01*
%TO.N,TP4056 OUT+*%
X135600000Y-105460000D02*
X135600000Y-106470000D01*
D30*
X144260000Y-91889999D02*
X144260000Y-91227500D01*
D29*
X133930000Y-108140000D02*
X125460000Y-108140000D01*
X125460000Y-108140000D02*
X123990000Y-106670000D01*
D30*
X146160000Y-91615908D02*
X145560908Y-92215000D01*
X146160000Y-91227500D02*
X146160000Y-91615908D01*
D29*
X143567500Y-94662500D02*
X139657500Y-94662500D01*
X135600000Y-106470000D02*
X133930000Y-108140000D01*
X123990000Y-106670000D02*
X123990000Y-105470000D01*
X144260000Y-91227500D02*
X144260000Y-93970000D01*
D30*
X145560908Y-92215000D02*
X144585001Y-92215000D01*
D29*
X135600000Y-98720000D02*
X135600000Y-105460000D01*
X144260000Y-93970000D02*
X143567500Y-94662500D01*
D30*
X144585001Y-92215000D02*
X144260000Y-91889999D01*
D29*
X139657500Y-94662500D02*
X135600000Y-98720000D01*
%TO.N,Net-(Switch1-B)*%
X145840000Y-107370000D02*
X140010000Y-107370000D01*
X140010000Y-107370000D02*
X138100000Y-105460000D01*
%TO.N,Net-(U2-EN)*%
D30*
X136480000Y-78480000D02*
X136480000Y-78380000D01*
X136500000Y-78500000D02*
X137550000Y-77450000D01*
X137550000Y-77450000D02*
X137550000Y-76850000D01*
X137550000Y-76850000D02*
X138250000Y-77550000D01*
X136500000Y-78500000D02*
X136480000Y-78480000D01*
X137550000Y-76000000D02*
X137550000Y-76850000D01*
%TO.N,Net-(NeoPixel1-DIN)*%
X128850000Y-98060000D02*
X128850000Y-103110000D01*
X128850000Y-103110000D02*
X126490000Y-105470000D01*
%TO.N,Net-(U2-IO15)*%
X127520000Y-94960000D02*
X126690000Y-94130000D01*
X128850000Y-94960000D02*
X127520000Y-94960000D01*
%TO.N,Net-(U2-IO0)*%
X124950000Y-77075000D02*
X126500000Y-78625000D01*
X123810000Y-76290000D02*
X123810000Y-76320000D01*
X123820000Y-76330000D02*
X123820000Y-76310000D01*
X124130000Y-76000000D02*
X124950000Y-76000000D01*
X123820000Y-76310000D02*
X124130000Y-76000000D01*
X124950000Y-76000000D02*
X124950000Y-77075000D01*
X123810000Y-76320000D02*
X123820000Y-76330000D01*
%TO.N,Net-(D1-A)*%
X129987500Y-90500000D02*
X132950000Y-90500000D01*
%TO.N,Net-(U2-IO27)*%
X137110000Y-90500000D02*
X138540000Y-89070000D01*
X136050000Y-90500000D02*
X136450000Y-90500000D01*
X136050000Y-90500000D02*
X137110000Y-90500000D01*
X136450000Y-90500000D02*
X136470000Y-90480000D01*
%TD*%
%TA.AperFunction,Conductor*%
%TO.N,GND*%
G36*
X135145809Y-74030185D02*
G01*
X135191564Y-74082989D01*
X135201508Y-74152147D01*
X135172483Y-74215703D01*
X135166451Y-74222181D01*
X134800449Y-74588181D01*
X134739126Y-74621666D01*
X134712768Y-74624500D01*
X133999998Y-74624500D01*
X133999980Y-74624501D01*
X133897203Y-74635000D01*
X133897200Y-74635001D01*
X133730668Y-74690185D01*
X133730663Y-74690187D01*
X133581342Y-74782289D01*
X133457289Y-74906342D01*
X133365187Y-75055663D01*
X133365185Y-75055668D01*
X133329121Y-75164504D01*
X133289348Y-75221949D01*
X133224833Y-75248772D01*
X133211415Y-75249500D01*
X129288585Y-75249500D01*
X129221546Y-75229815D01*
X129175791Y-75177011D01*
X129170879Y-75164504D01*
X129134814Y-75055666D01*
X129042712Y-74906344D01*
X128918656Y-74782288D01*
X128769334Y-74690186D01*
X128602797Y-74635001D01*
X128602795Y-74635000D01*
X128500010Y-74624500D01*
X127599998Y-74624500D01*
X127599980Y-74624501D01*
X127497203Y-74635000D01*
X127497200Y-74635001D01*
X127330668Y-74690185D01*
X127330663Y-74690187D01*
X127181342Y-74782289D01*
X127057289Y-74906342D01*
X126965187Y-75055663D01*
X126965186Y-75055666D01*
X126910001Y-75222203D01*
X126910001Y-75222204D01*
X126910000Y-75222204D01*
X126899500Y-75324983D01*
X126899500Y-76675001D01*
X126899501Y-76675018D01*
X126910000Y-76777796D01*
X126910001Y-76777799D01*
X126955451Y-76914956D01*
X126965186Y-76944334D01*
X127057288Y-77093656D01*
X127181344Y-77217712D01*
X127240596Y-77254258D01*
X127287321Y-77306204D01*
X127299500Y-77359797D01*
X127299500Y-77398933D01*
X127279815Y-77465972D01*
X127227011Y-77511727D01*
X127157853Y-77521671D01*
X127132168Y-77515115D01*
X127107485Y-77505909D01*
X127107483Y-77505908D01*
X127047883Y-77499501D01*
X127047881Y-77499500D01*
X127047873Y-77499500D01*
X127047865Y-77499500D01*
X126310452Y-77499500D01*
X126243413Y-77479815D01*
X126222771Y-77463181D01*
X125977910Y-77218320D01*
X125944425Y-77156997D01*
X125949409Y-77087305D01*
X125960049Y-77065547D01*
X126034814Y-76944334D01*
X126089999Y-76777797D01*
X126100500Y-76675009D01*
X126100499Y-75324992D01*
X126100351Y-75323548D01*
X126089999Y-75222203D01*
X126089998Y-75222200D01*
X126070879Y-75164504D01*
X126034814Y-75055666D01*
X125942712Y-74906344D01*
X125818656Y-74782288D01*
X125669334Y-74690186D01*
X125502797Y-74635001D01*
X125502795Y-74635000D01*
X125400010Y-74624500D01*
X124499998Y-74624500D01*
X124499980Y-74624501D01*
X124397203Y-74635000D01*
X124397200Y-74635001D01*
X124230668Y-74690185D01*
X124230663Y-74690187D01*
X124081342Y-74782289D01*
X123957289Y-74906342D01*
X123865187Y-75055663D01*
X123865186Y-75055666D01*
X123810001Y-75222203D01*
X123810001Y-75222204D01*
X123810000Y-75222204D01*
X123799500Y-75324983D01*
X123799500Y-75374141D01*
X123779815Y-75441180D01*
X123727011Y-75486935D01*
X123699692Y-75495758D01*
X123576508Y-75520261D01*
X123576498Y-75520264D01*
X123430827Y-75580602D01*
X123430814Y-75580609D01*
X123299711Y-75668210D01*
X123299707Y-75668213D01*
X123188213Y-75779707D01*
X123188210Y-75779711D01*
X123100609Y-75910814D01*
X123100602Y-75910827D01*
X123040264Y-76056498D01*
X123040261Y-76056510D01*
X123009500Y-76211153D01*
X123009500Y-76368846D01*
X123040261Y-76523489D01*
X123040264Y-76523501D01*
X123100602Y-76669172D01*
X123100609Y-76669185D01*
X123188210Y-76800288D01*
X123188213Y-76800292D01*
X123299707Y-76911786D01*
X123299711Y-76911789D01*
X123430814Y-76999390D01*
X123430827Y-76999397D01*
X123576498Y-77059735D01*
X123576503Y-77059737D01*
X123715096Y-77087305D01*
X123731153Y-77090499D01*
X123731156Y-77090500D01*
X123731158Y-77090500D01*
X123888837Y-77090500D01*
X123888842Y-77090500D01*
X123888846Y-77090499D01*
X123889902Y-77090395D01*
X123890456Y-77090500D01*
X123894934Y-77090500D01*
X123894934Y-77091348D01*
X123958549Y-77103408D01*
X123989747Y-77126115D01*
X124081344Y-77217712D01*
X124230666Y-77309814D01*
X124349429Y-77349167D01*
X124406873Y-77388939D01*
X124413524Y-77397979D01*
X124416574Y-77402544D01*
X124429913Y-77422506D01*
X124429914Y-77422509D01*
X124429915Y-77422509D01*
X124464141Y-77473733D01*
X124555586Y-77565178D01*
X124555608Y-77565198D01*
X125463181Y-78472771D01*
X125496666Y-78534094D01*
X125499500Y-78560452D01*
X125499500Y-79297870D01*
X125499501Y-79297876D01*
X125505908Y-79357483D01*
X125556202Y-79492328D01*
X125556206Y-79492335D01*
X125642452Y-79607544D01*
X125642455Y-79607547D01*
X125757664Y-79693793D01*
X125757671Y-79693797D01*
X125802618Y-79710561D01*
X125892517Y-79744091D01*
X125952127Y-79750500D01*
X126038770Y-79750499D01*
X126105807Y-79770183D01*
X126151563Y-79822986D01*
X126161507Y-79892145D01*
X126132483Y-79955701D01*
X126126450Y-79962180D01*
X125250451Y-80838181D01*
X125189128Y-80871666D01*
X125162770Y-80874500D01*
X123426080Y-80874500D01*
X123281092Y-80903340D01*
X123281082Y-80903343D01*
X123144511Y-80959912D01*
X123144498Y-80959919D01*
X123021584Y-81042048D01*
X123021580Y-81042051D01*
X122917051Y-81146580D01*
X122917048Y-81146584D01*
X122834919Y-81269498D01*
X122834912Y-81269511D01*
X122778343Y-81406082D01*
X122778340Y-81406092D01*
X122749500Y-81551079D01*
X122749500Y-92195396D01*
X122740062Y-92242844D01*
X122733751Y-92258082D01*
X122730262Y-92266506D01*
X122730260Y-92266511D01*
X122699500Y-92421153D01*
X122699500Y-92578846D01*
X122723771Y-92700860D01*
X122730263Y-92733497D01*
X122740061Y-92757151D01*
X122749500Y-92804604D01*
X122749500Y-93678130D01*
X122729815Y-93745169D01*
X122677011Y-93790924D01*
X122664505Y-93795836D01*
X122530666Y-93840186D01*
X122530663Y-93840187D01*
X122381342Y-93932289D01*
X122257289Y-94056342D01*
X122165187Y-94205663D01*
X122165185Y-94205668D01*
X122164132Y-94208846D01*
X122110001Y-94372203D01*
X122110001Y-94372204D01*
X122110000Y-94372204D01*
X122099500Y-94474983D01*
X122099500Y-94507769D01*
X122079815Y-94574808D01*
X122063181Y-94595450D01*
X118945451Y-97713181D01*
X118884128Y-97746666D01*
X118857770Y-97749500D01*
X118555301Y-97749500D01*
X118488262Y-97729815D01*
X118442507Y-97677011D01*
X118437595Y-97664504D01*
X118409814Y-97580666D01*
X118317712Y-97431344D01*
X118193656Y-97307288D01*
X118044334Y-97215186D01*
X118044332Y-97215185D01*
X118038440Y-97211551D01*
X117991716Y-97159603D01*
X117980493Y-97090641D01*
X118008337Y-97026558D01*
X118015856Y-97018330D01*
X118154728Y-96879458D01*
X118279620Y-96707557D01*
X118376095Y-96518217D01*
X118441757Y-96316129D01*
X118441757Y-96316126D01*
X118452231Y-96250000D01*
X117404146Y-96250000D01*
X117442630Y-96183343D01*
X117475000Y-96062535D01*
X117475000Y-95937465D01*
X117442630Y-95816657D01*
X117404146Y-95750000D01*
X118452231Y-95750000D01*
X118441757Y-95683873D01*
X118441757Y-95683870D01*
X118376095Y-95481782D01*
X118279620Y-95292442D01*
X118154727Y-95120540D01*
X118154723Y-95120535D01*
X118004464Y-94970276D01*
X118004459Y-94970272D01*
X117839781Y-94850627D01*
X117797115Y-94795297D01*
X117791136Y-94725684D01*
X117823741Y-94663889D01*
X117839776Y-94649994D01*
X118004792Y-94530104D01*
X118155104Y-94379792D01*
X118155106Y-94379788D01*
X118155109Y-94379786D01*
X118279303Y-94208846D01*
X118280051Y-94207816D01*
X118376557Y-94018412D01*
X118442246Y-93816243D01*
X118475500Y-93606287D01*
X118475500Y-93393713D01*
X118442246Y-93183757D01*
X118376557Y-92981588D01*
X118280051Y-92792184D01*
X118280049Y-92792181D01*
X118280048Y-92792179D01*
X118155109Y-92620213D01*
X118004792Y-92469896D01*
X118004784Y-92469890D01*
X117840204Y-92350316D01*
X117797540Y-92294989D01*
X117791561Y-92225376D01*
X117824166Y-92163580D01*
X117840199Y-92149686D01*
X118004792Y-92030104D01*
X118155104Y-91879792D01*
X118155106Y-91879788D01*
X118155109Y-91879786D01*
X118280048Y-91707820D01*
X118280047Y-91707820D01*
X118280051Y-91707816D01*
X118376557Y-91518412D01*
X118442246Y-91316243D01*
X118475500Y-91106287D01*
X118475500Y-90893713D01*
X118442246Y-90683757D01*
X118376557Y-90481588D01*
X118280051Y-90292184D01*
X118280049Y-90292181D01*
X118280048Y-90292179D01*
X118155109Y-90120213D01*
X118004786Y-89969890D01*
X117832820Y-89844951D01*
X117643414Y-89748444D01*
X117643413Y-89748443D01*
X117643412Y-89748443D01*
X117441243Y-89682754D01*
X117441241Y-89682753D01*
X117441240Y-89682753D01*
X117279957Y-89657208D01*
X117231287Y-89649500D01*
X116768713Y-89649500D01*
X116720042Y-89657208D01*
X116558760Y-89682753D01*
X116356585Y-89748444D01*
X116167179Y-89844951D01*
X115995213Y-89969890D01*
X115844890Y-90120213D01*
X115719951Y-90292179D01*
X115623444Y-90481585D01*
X115557753Y-90683760D01*
X115524500Y-90893713D01*
X115524500Y-91106286D01*
X115551664Y-91277797D01*
X115557754Y-91316243D01*
X115599374Y-91444337D01*
X115623444Y-91518414D01*
X115719951Y-91707820D01*
X115844890Y-91879786D01*
X115995209Y-92030105D01*
X115995214Y-92030109D01*
X116159793Y-92149682D01*
X116202459Y-92205011D01*
X116208438Y-92274625D01*
X116175833Y-92336420D01*
X116159793Y-92350318D01*
X115995214Y-92469890D01*
X115995209Y-92469894D01*
X115844890Y-92620213D01*
X115719951Y-92792179D01*
X115623444Y-92981585D01*
X115557753Y-93183760D01*
X115524500Y-93393713D01*
X115524500Y-93606286D01*
X115552805Y-93785001D01*
X115557754Y-93816243D01*
X115609006Y-93973981D01*
X115623444Y-94018414D01*
X115719951Y-94207820D01*
X115844890Y-94379786D01*
X115995209Y-94530105D01*
X115995214Y-94530109D01*
X116160218Y-94649991D01*
X116202884Y-94705320D01*
X116208863Y-94774934D01*
X116176258Y-94836729D01*
X116160218Y-94850627D01*
X115995540Y-94970272D01*
X115995535Y-94970276D01*
X115845276Y-95120535D01*
X115845272Y-95120540D01*
X115720379Y-95292442D01*
X115623904Y-95481782D01*
X115558242Y-95683870D01*
X115558242Y-95683873D01*
X115547769Y-95750000D01*
X116595854Y-95750000D01*
X116557370Y-95816657D01*
X116525000Y-95937465D01*
X116525000Y-96062535D01*
X116557370Y-96183343D01*
X116595854Y-96250000D01*
X115547769Y-96250000D01*
X115558242Y-96316126D01*
X115558242Y-96316129D01*
X115623904Y-96518217D01*
X115720379Y-96707557D01*
X115845272Y-96879459D01*
X115845276Y-96879464D01*
X115984143Y-97018331D01*
X116017628Y-97079654D01*
X116012644Y-97149346D01*
X115970772Y-97205279D01*
X115961559Y-97211551D01*
X115806342Y-97307289D01*
X115682289Y-97431342D01*
X115590187Y-97580663D01*
X115590185Y-97580668D01*
X115580468Y-97609992D01*
X115535001Y-97747203D01*
X115535001Y-97747204D01*
X115535000Y-97747204D01*
X115524500Y-97849983D01*
X115524500Y-99150001D01*
X115524501Y-99150018D01*
X115535000Y-99252796D01*
X115535001Y-99252799D01*
X115590185Y-99419331D01*
X115590186Y-99419334D01*
X115682288Y-99568656D01*
X115806344Y-99692712D01*
X115955666Y-99784814D01*
X116122203Y-99839999D01*
X116224991Y-99850500D01*
X117775008Y-99850499D01*
X117877797Y-99839999D01*
X118044334Y-99784814D01*
X118193656Y-99692712D01*
X118317712Y-99568656D01*
X118409814Y-99419334D01*
X118437595Y-99335495D01*
X118477368Y-99278051D01*
X118541884Y-99251228D01*
X118555301Y-99250500D01*
X119293920Y-99250500D01*
X119394095Y-99230573D01*
X119438913Y-99221658D01*
X119575495Y-99165084D01*
X119640207Y-99121845D01*
X119698416Y-99082952D01*
X120256382Y-98524986D01*
X122100001Y-98524986D01*
X122110494Y-98627697D01*
X122165641Y-98794119D01*
X122165643Y-98794124D01*
X122257684Y-98943345D01*
X122381654Y-99067315D01*
X122530875Y-99159356D01*
X122530880Y-99159358D01*
X122697302Y-99214505D01*
X122697309Y-99214506D01*
X122800019Y-99224999D01*
X123249999Y-99224999D01*
X123750000Y-99224999D01*
X124199972Y-99224999D01*
X124199986Y-99224998D01*
X124302697Y-99214505D01*
X124469119Y-99159358D01*
X124469124Y-99159356D01*
X124618345Y-99067315D01*
X124742315Y-98943345D01*
X124834356Y-98794124D01*
X124834358Y-98794119D01*
X124889505Y-98627697D01*
X124889506Y-98627690D01*
X124899999Y-98524986D01*
X124900000Y-98524973D01*
X124900000Y-98312500D01*
X123750000Y-98312500D01*
X123750000Y-99224999D01*
X123249999Y-99224999D01*
X123250000Y-99224998D01*
X123250000Y-98312500D01*
X122100001Y-98312500D01*
X122100001Y-98524986D01*
X120256382Y-98524986D01*
X121181354Y-97600013D01*
X122100000Y-97600013D01*
X122100000Y-97812500D01*
X123250000Y-97812500D01*
X123750000Y-97812500D01*
X124899999Y-97812500D01*
X124899999Y-97600028D01*
X124899998Y-97600013D01*
X124889505Y-97497302D01*
X124834358Y-97330880D01*
X124834356Y-97330875D01*
X124742315Y-97181654D01*
X124618345Y-97057684D01*
X124469124Y-96965643D01*
X124469119Y-96965641D01*
X124302697Y-96910494D01*
X124302690Y-96910493D01*
X124199986Y-96900000D01*
X123750000Y-96900000D01*
X123750000Y-97812500D01*
X123250000Y-97812500D01*
X123250000Y-96900000D01*
X122800028Y-96900000D01*
X122800012Y-96900001D01*
X122697302Y-96910494D01*
X122530880Y-96965641D01*
X122530875Y-96965643D01*
X122381654Y-97057684D01*
X122257684Y-97181654D01*
X122165643Y-97330875D01*
X122165641Y-97330880D01*
X122110494Y-97497302D01*
X122110493Y-97497309D01*
X122100000Y-97600013D01*
X121181354Y-97600013D01*
X122650245Y-96131121D01*
X122711566Y-96097638D01*
X122750523Y-96095446D01*
X122799991Y-96100500D01*
X124200008Y-96100499D01*
X124302797Y-96089999D01*
X124469334Y-96034814D01*
X124618656Y-95942712D01*
X124742712Y-95818656D01*
X124834814Y-95669334D01*
X124889999Y-95502797D01*
X124900500Y-95400009D01*
X124900499Y-94474992D01*
X124889999Y-94372203D01*
X124834814Y-94205666D01*
X124742712Y-94056344D01*
X124737521Y-94051153D01*
X125889500Y-94051153D01*
X125889500Y-94208846D01*
X125920261Y-94363489D01*
X125920264Y-94363501D01*
X125980602Y-94509172D01*
X125980609Y-94509185D01*
X126068210Y-94640288D01*
X126068213Y-94640292D01*
X126179707Y-94751786D01*
X126179711Y-94751789D01*
X126310814Y-94839390D01*
X126310827Y-94839397D01*
X126398230Y-94875599D01*
X126456503Y-94899737D01*
X126567716Y-94921858D01*
X126629623Y-94954241D01*
X126631203Y-94955793D01*
X127031016Y-95355606D01*
X127031045Y-95355637D01*
X127121263Y-95445855D01*
X127121267Y-95445858D01*
X127223707Y-95514307D01*
X127223713Y-95514310D01*
X127223714Y-95514311D01*
X127337548Y-95561463D01*
X127397971Y-95573481D01*
X127441865Y-95582212D01*
X127503776Y-95614598D01*
X127535377Y-95664823D01*
X127540184Y-95679331D01*
X127540186Y-95679334D01*
X127632288Y-95828656D01*
X127756344Y-95952712D01*
X127905666Y-96044814D01*
X128072203Y-96099999D01*
X128174991Y-96110500D01*
X129525008Y-96110499D01*
X129627797Y-96099999D01*
X129794334Y-96044814D01*
X129943656Y-95952712D01*
X130067712Y-95828656D01*
X130159814Y-95679334D01*
X130214999Y-95512797D01*
X130225500Y-95410009D01*
X130225499Y-94509992D01*
X130221922Y-94474980D01*
X130214999Y-94407203D01*
X130214998Y-94407200D01*
X130203400Y-94372200D01*
X130159814Y-94240666D01*
X130067712Y-94091344D01*
X129943656Y-93967288D01*
X129828888Y-93896499D01*
X129794336Y-93875187D01*
X129794331Y-93875185D01*
X129747609Y-93859703D01*
X129627797Y-93820001D01*
X129627795Y-93820000D01*
X129525010Y-93809500D01*
X128174998Y-93809500D01*
X128174981Y-93809501D01*
X128072203Y-93820000D01*
X128072200Y-93820001D01*
X127905668Y-93875185D01*
X127905663Y-93875187D01*
X127756345Y-93967287D01*
X127684730Y-94038902D01*
X127623406Y-94072386D01*
X127553715Y-94067401D01*
X127497781Y-94025530D01*
X127475433Y-93975415D01*
X127459737Y-93896503D01*
X127428049Y-93820000D01*
X127399397Y-93750827D01*
X127399390Y-93750814D01*
X127311789Y-93619711D01*
X127311786Y-93619707D01*
X127200292Y-93508213D01*
X127200288Y-93508210D01*
X127069185Y-93420609D01*
X127069172Y-93420602D01*
X126923501Y-93360264D01*
X126923489Y-93360261D01*
X126768845Y-93329500D01*
X126768842Y-93329500D01*
X126611158Y-93329500D01*
X126611155Y-93329500D01*
X126456510Y-93360261D01*
X126456498Y-93360264D01*
X126310827Y-93420602D01*
X126310814Y-93420609D01*
X126179711Y-93508210D01*
X126179707Y-93508213D01*
X126068213Y-93619707D01*
X126068210Y-93619711D01*
X125980609Y-93750814D01*
X125980602Y-93750827D01*
X125920264Y-93896498D01*
X125920261Y-93896510D01*
X125889500Y-94051153D01*
X124737521Y-94051153D01*
X124618656Y-93932288D01*
X124469334Y-93840186D01*
X124335495Y-93795836D01*
X124278051Y-93756063D01*
X124251228Y-93691547D01*
X124250500Y-93678130D01*
X124250500Y-92804604D01*
X124259939Y-92757151D01*
X124269737Y-92733497D01*
X124300500Y-92578842D01*
X124300500Y-92421158D01*
X124300500Y-92421155D01*
X124300499Y-92421153D01*
X124269739Y-92266511D01*
X124269738Y-92266508D01*
X124269737Y-92266503D01*
X124259937Y-92242844D01*
X124250500Y-92195396D01*
X124250500Y-91174985D01*
X125800000Y-91174985D01*
X125810493Y-91277689D01*
X125810494Y-91277696D01*
X125865641Y-91444118D01*
X125865643Y-91444123D01*
X125957684Y-91593344D01*
X126081655Y-91717315D01*
X126230876Y-91809356D01*
X126230881Y-91809358D01*
X126397303Y-91864505D01*
X126397310Y-91864506D01*
X126500014Y-91874999D01*
X126500027Y-91875000D01*
X126762500Y-91875000D01*
X127262500Y-91875000D01*
X127524973Y-91875000D01*
X127524985Y-91874999D01*
X127627689Y-91864506D01*
X127627696Y-91864505D01*
X127794118Y-91809358D01*
X127794123Y-91809356D01*
X127943344Y-91717315D01*
X128067315Y-91593344D01*
X128159356Y-91444123D01*
X128159358Y-91444118D01*
X128214505Y-91277696D01*
X128214506Y-91277689D01*
X128224999Y-91174985D01*
X128225000Y-91174972D01*
X128225000Y-90750000D01*
X127262500Y-90750000D01*
X127262500Y-91875000D01*
X126762500Y-91875000D01*
X126762500Y-90750000D01*
X125800000Y-90750000D01*
X125800000Y-91174985D01*
X124250500Y-91174985D01*
X124250500Y-89825014D01*
X125800000Y-89825014D01*
X125800000Y-90250000D01*
X126762500Y-90250000D01*
X127262500Y-90250000D01*
X128225000Y-90250000D01*
X128225000Y-89825023D01*
X128224999Y-89825019D01*
X128224995Y-89824984D01*
X128774500Y-89824984D01*
X128774500Y-91175015D01*
X128785000Y-91277795D01*
X128785001Y-91277797D01*
X128797741Y-91316243D01*
X128840186Y-91444335D01*
X128840187Y-91444337D01*
X128932286Y-91593651D01*
X128932289Y-91593655D01*
X129056344Y-91717710D01*
X129056348Y-91717713D01*
X129205662Y-91809812D01*
X129205664Y-91809813D01*
X129205666Y-91809814D01*
X129372203Y-91864999D01*
X129474992Y-91875500D01*
X129474997Y-91875500D01*
X130500003Y-91875500D01*
X130500008Y-91875500D01*
X130602797Y-91864999D01*
X130769334Y-91809814D01*
X130918655Y-91717711D01*
X131042711Y-91593655D01*
X131134814Y-91444334D01*
X131189999Y-91277797D01*
X131194177Y-91236897D01*
X131220573Y-91172207D01*
X131277753Y-91132055D01*
X131317535Y-91125500D01*
X131682465Y-91125500D01*
X131749504Y-91145185D01*
X131795259Y-91197989D01*
X131805823Y-91236898D01*
X131810001Y-91277797D01*
X131810001Y-91277799D01*
X131865114Y-91444118D01*
X131865186Y-91444334D01*
X131957288Y-91593656D01*
X132081344Y-91717712D01*
X132230666Y-91809814D01*
X132397203Y-91864999D01*
X132499991Y-91875500D01*
X133400008Y-91875499D01*
X133400016Y-91875498D01*
X133400019Y-91875498D01*
X133456302Y-91869748D01*
X133502797Y-91864999D01*
X133669334Y-91809814D01*
X133818656Y-91717712D01*
X133942712Y-91593656D01*
X134034814Y-91444334D01*
X134089999Y-91277797D01*
X134100500Y-91175009D01*
X134100499Y-89824992D01*
X134100498Y-89824983D01*
X134899500Y-89824983D01*
X134899500Y-91175001D01*
X134899501Y-91175018D01*
X134910000Y-91277796D01*
X134910001Y-91277799D01*
X134965114Y-91444118D01*
X134965186Y-91444334D01*
X135057288Y-91593656D01*
X135181344Y-91717712D01*
X135330666Y-91809814D01*
X135497203Y-91864999D01*
X135599991Y-91875500D01*
X136500008Y-91875499D01*
X136500016Y-91875498D01*
X136500019Y-91875498D01*
X136556302Y-91869748D01*
X136602797Y-91864999D01*
X136769334Y-91809814D01*
X136918656Y-91717712D01*
X137042712Y-91593656D01*
X137134814Y-91444334D01*
X137189999Y-91277797D01*
X137196951Y-91209747D01*
X137223347Y-91145057D01*
X137280528Y-91104905D01*
X137286638Y-91103270D01*
X137286626Y-91103230D01*
X137292446Y-91101464D01*
X137292452Y-91101463D01*
X137292457Y-91101460D01*
X137292460Y-91101460D01*
X137325787Y-91087654D01*
X137325786Y-91087654D01*
X137325792Y-91087652D01*
X137406286Y-91054312D01*
X137457509Y-91020084D01*
X137508733Y-90985858D01*
X137595858Y-90898733D01*
X137595858Y-90898731D01*
X137606066Y-90888524D01*
X137606067Y-90888521D01*
X138598798Y-89895791D01*
X138660119Y-89862308D01*
X138662114Y-89861892D01*
X138773497Y-89839737D01*
X138919179Y-89779394D01*
X139050289Y-89691789D01*
X139161789Y-89580289D01*
X139249394Y-89449179D01*
X139309737Y-89303497D01*
X139340500Y-89148842D01*
X139340500Y-88991158D01*
X139340500Y-88991155D01*
X139340499Y-88991153D01*
X139309737Y-88836503D01*
X139261859Y-88720914D01*
X139249397Y-88690827D01*
X139249390Y-88690814D01*
X139161789Y-88559711D01*
X139161786Y-88559707D01*
X139050292Y-88448213D01*
X139050288Y-88448210D01*
X138919185Y-88360609D01*
X138919172Y-88360602D01*
X138773501Y-88300264D01*
X138773489Y-88300261D01*
X138618845Y-88269500D01*
X138618842Y-88269500D01*
X138461158Y-88269500D01*
X138461155Y-88269500D01*
X138306510Y-88300261D01*
X138306498Y-88300264D01*
X138160827Y-88360602D01*
X138160814Y-88360609D01*
X138029711Y-88448210D01*
X138029707Y-88448213D01*
X137918213Y-88559707D01*
X137918210Y-88559711D01*
X137830609Y-88690814D01*
X137830602Y-88690827D01*
X137770264Y-88836498D01*
X137770261Y-88836508D01*
X137748141Y-88947713D01*
X137715756Y-89009624D01*
X137714205Y-89011202D01*
X137259030Y-89466377D01*
X137197707Y-89499862D01*
X137128015Y-89494878D01*
X137072082Y-89453006D01*
X137065810Y-89443792D01*
X137042712Y-89406344D01*
X136918657Y-89282289D01*
X136918656Y-89282288D01*
X136769334Y-89190186D01*
X136602797Y-89135001D01*
X136602795Y-89135000D01*
X136500010Y-89124500D01*
X135599998Y-89124500D01*
X135599980Y-89124501D01*
X135497203Y-89135000D01*
X135497200Y-89135001D01*
X135330668Y-89190185D01*
X135330663Y-89190187D01*
X135181342Y-89282289D01*
X135057289Y-89406342D01*
X134965187Y-89555663D01*
X134965185Y-89555668D01*
X134937349Y-89639670D01*
X134910001Y-89722203D01*
X134910001Y-89722204D01*
X134910000Y-89722204D01*
X134899500Y-89824983D01*
X134100498Y-89824983D01*
X134098151Y-89802011D01*
X134089999Y-89722203D01*
X134089998Y-89722200D01*
X134076927Y-89682754D01*
X134034814Y-89555666D01*
X133942712Y-89406344D01*
X133818656Y-89282288D01*
X133669334Y-89190186D01*
X133502797Y-89135001D01*
X133502795Y-89135000D01*
X133400010Y-89124500D01*
X132499998Y-89124500D01*
X132499980Y-89124501D01*
X132397203Y-89135000D01*
X132397200Y-89135001D01*
X132230668Y-89190185D01*
X132230663Y-89190187D01*
X132081342Y-89282289D01*
X131957289Y-89406342D01*
X131865187Y-89555663D01*
X131865185Y-89555668D01*
X131837349Y-89639670D01*
X131823074Y-89682753D01*
X131810001Y-89722204D01*
X131810000Y-89722205D01*
X131805823Y-89763102D01*
X131779427Y-89827793D01*
X131722247Y-89867945D01*
X131682465Y-89874500D01*
X131317535Y-89874500D01*
X131250496Y-89854815D01*
X131204741Y-89802011D01*
X131194177Y-89763102D01*
X131192679Y-89748443D01*
X131189999Y-89722203D01*
X131134814Y-89555666D01*
X131134813Y-89555664D01*
X131134812Y-89555662D01*
X131042713Y-89406348D01*
X131042710Y-89406344D01*
X130918655Y-89282289D01*
X130918651Y-89282286D01*
X130769337Y-89190187D01*
X130769335Y-89190186D01*
X130644566Y-89148842D01*
X130602797Y-89135001D01*
X130602795Y-89135000D01*
X130500015Y-89124500D01*
X130500008Y-89124500D01*
X129474992Y-89124500D01*
X129474984Y-89124500D01*
X129372204Y-89135000D01*
X129372203Y-89135001D01*
X129205664Y-89190186D01*
X129205662Y-89190187D01*
X129056348Y-89282286D01*
X129056344Y-89282289D01*
X128932289Y-89406344D01*
X128932286Y-89406348D01*
X128840187Y-89555662D01*
X128840186Y-89555664D01*
X128785001Y-89722203D01*
X128785000Y-89722204D01*
X128774500Y-89824984D01*
X128224995Y-89824984D01*
X128214506Y-89722310D01*
X128214505Y-89722303D01*
X128159358Y-89555881D01*
X128159356Y-89555876D01*
X128067315Y-89406655D01*
X127943344Y-89282684D01*
X127794123Y-89190643D01*
X127794118Y-89190641D01*
X127627696Y-89135494D01*
X127627689Y-89135493D01*
X127524985Y-89125000D01*
X127262500Y-89125000D01*
X127262500Y-90250000D01*
X126762500Y-90250000D01*
X126762500Y-89125000D01*
X126500014Y-89125000D01*
X126397310Y-89135493D01*
X126397303Y-89135494D01*
X126230881Y-89190641D01*
X126230876Y-89190643D01*
X126081655Y-89282684D01*
X125957684Y-89406655D01*
X125865643Y-89555876D01*
X125865641Y-89555881D01*
X125810494Y-89722303D01*
X125810493Y-89722310D01*
X125800000Y-89825014D01*
X124250500Y-89825014D01*
X124250500Y-87047844D01*
X125500000Y-87047844D01*
X125506401Y-87107372D01*
X125506403Y-87107379D01*
X125556645Y-87242086D01*
X125556649Y-87242093D01*
X125642809Y-87357187D01*
X125642812Y-87357190D01*
X125757906Y-87443350D01*
X125757913Y-87443354D01*
X125892620Y-87493596D01*
X125892627Y-87493598D01*
X125952155Y-87499999D01*
X125952172Y-87500000D01*
X126250000Y-87500000D01*
X126750000Y-87500000D01*
X127047828Y-87500000D01*
X127047844Y-87499999D01*
X127107372Y-87493598D01*
X127107379Y-87493596D01*
X127242086Y-87443354D01*
X127242093Y-87443350D01*
X127357187Y-87357190D01*
X127357190Y-87357187D01*
X127443350Y-87242093D01*
X127443354Y-87242086D01*
X127493596Y-87107379D01*
X127493598Y-87107372D01*
X127499999Y-87047844D01*
X127500000Y-87047827D01*
X127500000Y-86922844D01*
X135500000Y-86922844D01*
X135506401Y-86982372D01*
X135506403Y-86982379D01*
X135556645Y-87117086D01*
X135556649Y-87117093D01*
X135642809Y-87232187D01*
X135642812Y-87232190D01*
X135757906Y-87318350D01*
X135757913Y-87318354D01*
X135892620Y-87368596D01*
X135892627Y-87368598D01*
X135952155Y-87374999D01*
X135952172Y-87375000D01*
X136250000Y-87375000D01*
X136750000Y-87375000D01*
X137047828Y-87375000D01*
X137047844Y-87374999D01*
X137107372Y-87368598D01*
X137107379Y-87368596D01*
X137242086Y-87318354D01*
X137242093Y-87318350D01*
X137357187Y-87232190D01*
X137357190Y-87232187D01*
X137443350Y-87117093D01*
X137443354Y-87117086D01*
X137493596Y-86982379D01*
X137493598Y-86982372D01*
X137499999Y-86922844D01*
X137500000Y-86922827D01*
X137500000Y-86500000D01*
X136750000Y-86500000D01*
X136750000Y-87375000D01*
X136250000Y-87375000D01*
X136250000Y-86500000D01*
X135500000Y-86500000D01*
X135500000Y-86922844D01*
X127500000Y-86922844D01*
X127500000Y-86625000D01*
X126750000Y-86625000D01*
X126750000Y-87500000D01*
X126250000Y-87500000D01*
X126250000Y-86625000D01*
X125500000Y-86625000D01*
X125500000Y-87047844D01*
X124250500Y-87047844D01*
X124250500Y-85702155D01*
X125500000Y-85702155D01*
X125500000Y-86125000D01*
X126250000Y-86125000D01*
X126750000Y-86125000D01*
X127500000Y-86125000D01*
X127500000Y-85702172D01*
X127499999Y-85702155D01*
X127493598Y-85642627D01*
X127493596Y-85642616D01*
X127484110Y-85617183D01*
X127469180Y-85577155D01*
X135500000Y-85577155D01*
X135500000Y-86000000D01*
X136250000Y-86000000D01*
X136750000Y-86000000D01*
X137500000Y-86000000D01*
X137500000Y-85577172D01*
X137499999Y-85577155D01*
X137493598Y-85517627D01*
X137493596Y-85517620D01*
X137443354Y-85382913D01*
X137443350Y-85382906D01*
X137357190Y-85267812D01*
X137357187Y-85267809D01*
X137242093Y-85181649D01*
X137242086Y-85181645D01*
X137107379Y-85131403D01*
X137107372Y-85131401D01*
X137047844Y-85125000D01*
X136750000Y-85125000D01*
X136750000Y-86000000D01*
X136250000Y-86000000D01*
X136250000Y-85125000D01*
X135952155Y-85125000D01*
X135892627Y-85131401D01*
X135892620Y-85131403D01*
X135757913Y-85181645D01*
X135757906Y-85181649D01*
X135642812Y-85267809D01*
X135642809Y-85267812D01*
X135556649Y-85382906D01*
X135556645Y-85382913D01*
X135506403Y-85517620D01*
X135506401Y-85517627D01*
X135500000Y-85577155D01*
X127469180Y-85577155D01*
X127443354Y-85507913D01*
X127443350Y-85507906D01*
X127357190Y-85392812D01*
X127357187Y-85392809D01*
X127242093Y-85306649D01*
X127242086Y-85306645D01*
X127107379Y-85256403D01*
X127107372Y-85256401D01*
X127047844Y-85250000D01*
X126750000Y-85250000D01*
X126750000Y-86125000D01*
X126250000Y-86125000D01*
X126250000Y-85250000D01*
X125952155Y-85250000D01*
X125892627Y-85256401D01*
X125892620Y-85256403D01*
X125757913Y-85306645D01*
X125757906Y-85306649D01*
X125642812Y-85392809D01*
X125642809Y-85392812D01*
X125556649Y-85507906D01*
X125556645Y-85507913D01*
X125506403Y-85642620D01*
X125506401Y-85642627D01*
X125500000Y-85702155D01*
X124250500Y-85702155D01*
X124250500Y-82499500D01*
X124270185Y-82432461D01*
X124322989Y-82386706D01*
X124374500Y-82375500D01*
X125598920Y-82375500D01*
X125696462Y-82356096D01*
X125743913Y-82346658D01*
X125880495Y-82290084D01*
X125929729Y-82257186D01*
X126003416Y-82207952D01*
X128632951Y-79578416D01*
X128715084Y-79455495D01*
X128771658Y-79318913D01*
X128784425Y-79254729D01*
X128800500Y-79173920D01*
X128800500Y-77359797D01*
X128820185Y-77292758D01*
X128859403Y-77254258D01*
X128918656Y-77217712D01*
X129042712Y-77093656D01*
X129134814Y-76944334D01*
X129170879Y-76835494D01*
X129210652Y-76778051D01*
X129275167Y-76751228D01*
X129288585Y-76750500D01*
X133211415Y-76750500D01*
X133278454Y-76770185D01*
X133324209Y-76822989D01*
X133329118Y-76835489D01*
X133365186Y-76944334D01*
X133457288Y-77093656D01*
X133581344Y-77217712D01*
X133730666Y-77309814D01*
X133897203Y-77364999D01*
X133999991Y-77375500D01*
X134900008Y-77375499D01*
X134900016Y-77375498D01*
X134900019Y-77375498D01*
X134956302Y-77369748D01*
X135002797Y-77364999D01*
X135169334Y-77309814D01*
X135318656Y-77217712D01*
X135442712Y-77093656D01*
X135534814Y-76944334D01*
X135589999Y-76777797D01*
X135600500Y-76675009D01*
X135600499Y-75962228D01*
X135620183Y-75895190D01*
X135636813Y-75874553D01*
X136187820Y-75323546D01*
X136249142Y-75290063D01*
X136318834Y-75295047D01*
X136374767Y-75336919D01*
X136399184Y-75402383D01*
X136399500Y-75411229D01*
X136399500Y-76675001D01*
X136399501Y-76675018D01*
X136410000Y-76777796D01*
X136410001Y-76777799D01*
X136455451Y-76914956D01*
X136465186Y-76944334D01*
X136555864Y-77091348D01*
X136557289Y-77093657D01*
X136626451Y-77162819D01*
X136659936Y-77224142D01*
X136654952Y-77293834D01*
X136613080Y-77349767D01*
X136547616Y-77374184D01*
X136538770Y-77374500D01*
X135952129Y-77374500D01*
X135952123Y-77374501D01*
X135892516Y-77380908D01*
X135757671Y-77431202D01*
X135757664Y-77431206D01*
X135642455Y-77517452D01*
X135642452Y-77517455D01*
X135556206Y-77632664D01*
X135556202Y-77632671D01*
X135505908Y-77767517D01*
X135499501Y-77827116D01*
X135499500Y-77827135D01*
X135499500Y-79172870D01*
X135499501Y-79172876D01*
X135505908Y-79232483D01*
X135556202Y-79367328D01*
X135556206Y-79367335D01*
X135642452Y-79482544D01*
X135642455Y-79482547D01*
X135757664Y-79568793D01*
X135757671Y-79568797D01*
X135892517Y-79619091D01*
X135892516Y-79619091D01*
X135899444Y-79619835D01*
X135952127Y-79625500D01*
X137047872Y-79625499D01*
X137107483Y-79619091D01*
X137242331Y-79568796D01*
X137357546Y-79482546D01*
X137443796Y-79367331D01*
X137494091Y-79232483D01*
X137500500Y-79172873D01*
X137500499Y-78435451D01*
X137520183Y-78368413D01*
X137536812Y-78347776D01*
X137651624Y-78232964D01*
X137712942Y-78199483D01*
X137782634Y-78204467D01*
X137808192Y-78217547D01*
X137870814Y-78259390D01*
X137870827Y-78259397D01*
X137991791Y-78309501D01*
X138016503Y-78319737D01*
X138170243Y-78350318D01*
X138171153Y-78350499D01*
X138171156Y-78350500D01*
X138171158Y-78350500D01*
X138328844Y-78350500D01*
X138328845Y-78350499D01*
X138483497Y-78319737D01*
X138629179Y-78259394D01*
X138760289Y-78171789D01*
X138871789Y-78060289D01*
X138959394Y-77929179D01*
X139019737Y-77783497D01*
X139050500Y-77628842D01*
X139050500Y-77471158D01*
X139050500Y-77471155D01*
X139050499Y-77471153D01*
X139042553Y-77431206D01*
X139019737Y-77316503D01*
X139015471Y-77306204D01*
X138959397Y-77170827D01*
X138959390Y-77170814D01*
X138871789Y-77039711D01*
X138871786Y-77039707D01*
X138760292Y-76928213D01*
X138760288Y-76928210D01*
X138740452Y-76914956D01*
X138695647Y-76861344D01*
X138686940Y-76792019D01*
X138688795Y-76784457D01*
X138688582Y-76784412D01*
X138689995Y-76777807D01*
X138689999Y-76777797D01*
X138700500Y-76675009D01*
X138700499Y-75401227D01*
X138720184Y-75334189D01*
X138772987Y-75288434D01*
X138842146Y-75278490D01*
X138905702Y-75307515D01*
X138912166Y-75313534D01*
X139655131Y-76056498D01*
X140353181Y-76754548D01*
X140386666Y-76815871D01*
X140389500Y-76842229D01*
X140389500Y-77676418D01*
X140389500Y-77676420D01*
X140389499Y-77676420D01*
X140418340Y-77821407D01*
X140418343Y-77821417D01*
X140474913Y-77957990D01*
X140474914Y-77957991D01*
X140474916Y-77957995D01*
X140490465Y-77981265D01*
X140490466Y-77981267D01*
X140557051Y-78080920D01*
X140557052Y-78080921D01*
X141643181Y-79167048D01*
X141676666Y-79228371D01*
X141679500Y-79254729D01*
X141679500Y-80005001D01*
X141679501Y-80005019D01*
X141690000Y-80107796D01*
X141690001Y-80107799D01*
X141721989Y-80204331D01*
X141745186Y-80274334D01*
X141837288Y-80423656D01*
X141961344Y-80547712D01*
X142110666Y-80639814D01*
X142277203Y-80694999D01*
X142379991Y-80705500D01*
X142693000Y-80705499D01*
X142760039Y-80725183D01*
X142805794Y-80777987D01*
X142817000Y-80829499D01*
X142817000Y-84199991D01*
X142797315Y-84267030D01*
X142758098Y-84305529D01*
X142686344Y-84349787D01*
X142562289Y-84473842D01*
X142470187Y-84623163D01*
X142470185Y-84623168D01*
X142470115Y-84623380D01*
X142415001Y-84789703D01*
X142415001Y-84789704D01*
X142415000Y-84789704D01*
X142404500Y-84892483D01*
X142404500Y-86292501D01*
X142404501Y-86292518D01*
X142415000Y-86395296D01*
X142415001Y-86395299D01*
X142449696Y-86500000D01*
X142470186Y-86561834D01*
X142562288Y-86711156D01*
X142686344Y-86835212D01*
X142758096Y-86879468D01*
X142804821Y-86931415D01*
X142817000Y-86985007D01*
X142817000Y-87455892D01*
X142814617Y-87480084D01*
X142799500Y-87556079D01*
X142799500Y-87556082D01*
X142799500Y-88316418D01*
X142799500Y-88316420D01*
X142799499Y-88316420D01*
X142828340Y-88461407D01*
X142828343Y-88461417D01*
X142884914Y-88597992D01*
X142917812Y-88647227D01*
X142917813Y-88647230D01*
X142967046Y-88720914D01*
X142967052Y-88720921D01*
X143423181Y-89177048D01*
X143456666Y-89238371D01*
X143459500Y-89264729D01*
X143459500Y-89530701D01*
X143462401Y-89567567D01*
X143462402Y-89567573D01*
X143508254Y-89725393D01*
X143508255Y-89725396D01*
X143591917Y-89866862D01*
X143591923Y-89866870D01*
X143708129Y-89983076D01*
X143708140Y-89983085D01*
X143708455Y-89983271D01*
X143708650Y-89983480D01*
X143714298Y-89987861D01*
X143713591Y-89988772D01*
X143756136Y-90034343D01*
X143768637Y-90103085D01*
X143741988Y-90167673D01*
X143714078Y-90191856D01*
X143714298Y-90192139D01*
X143709092Y-90196176D01*
X143708455Y-90196729D01*
X143708140Y-90196914D01*
X143708129Y-90196923D01*
X143591923Y-90313129D01*
X143591917Y-90313137D01*
X143508255Y-90454603D01*
X143508254Y-90454606D01*
X143462402Y-90612426D01*
X143462401Y-90612432D01*
X143459500Y-90649298D01*
X143459500Y-91805701D01*
X143462401Y-91842567D01*
X143462402Y-91842573D01*
X143504576Y-91987733D01*
X143509500Y-92022328D01*
X143509500Y-93138000D01*
X143489815Y-93205039D01*
X143437011Y-93250794D01*
X143385500Y-93262000D01*
X143104999Y-93262000D01*
X143104980Y-93262001D01*
X143002203Y-93272500D01*
X143002200Y-93272501D01*
X142835668Y-93327685D01*
X142835663Y-93327687D01*
X142686342Y-93419789D01*
X142562289Y-93543842D01*
X142470187Y-93693163D01*
X142470185Y-93693168D01*
X142470115Y-93693380D01*
X142425835Y-93827005D01*
X142386064Y-93884449D01*
X142321549Y-93911272D01*
X142308131Y-93912000D01*
X139583576Y-93912000D01*
X139554742Y-93917734D01*
X139554743Y-93917735D01*
X139438593Y-93940839D01*
X139438583Y-93940842D01*
X139358581Y-93973979D01*
X139358582Y-93973980D01*
X139302005Y-93997415D01*
X139270582Y-94018412D01*
X139232411Y-94043917D01*
X139232410Y-94043918D01*
X139179086Y-94079546D01*
X139179081Y-94079550D01*
X135017049Y-98241582D01*
X134990653Y-98281088D01*
X134990652Y-98281089D01*
X134934919Y-98364498D01*
X134934912Y-98364511D01*
X134878343Y-98501082D01*
X134878340Y-98501092D01*
X134849500Y-98646079D01*
X134849500Y-103879699D01*
X134829815Y-103946738D01*
X134777011Y-103992493D01*
X134764507Y-103997403D01*
X134731962Y-104008188D01*
X134680668Y-104025185D01*
X134680663Y-104025187D01*
X134531342Y-104117289D01*
X134407289Y-104241342D01*
X134315187Y-104390663D01*
X134315185Y-104390668D01*
X134310325Y-104405334D01*
X134260001Y-104557203D01*
X134260001Y-104557204D01*
X134260000Y-104557204D01*
X134249500Y-104659983D01*
X134249500Y-106260001D01*
X134249501Y-106260018D01*
X134260000Y-106362796D01*
X134260001Y-106362799D01*
X134308253Y-106508412D01*
X134315186Y-106529334D01*
X134315188Y-106529338D01*
X134315191Y-106529343D01*
X134326323Y-106547392D01*
X134344762Y-106614785D01*
X134323838Y-106681448D01*
X134308464Y-106700167D01*
X133655451Y-107353181D01*
X133594128Y-107386666D01*
X133567770Y-107389500D01*
X125822230Y-107389500D01*
X125755191Y-107369815D01*
X125734549Y-107353181D01*
X125044418Y-106663050D01*
X125010933Y-106601727D01*
X125015917Y-106532035D01*
X125031781Y-106502484D01*
X125149682Y-106340206D01*
X125205011Y-106297540D01*
X125274625Y-106291561D01*
X125336420Y-106324166D01*
X125350313Y-106340199D01*
X125390410Y-106395388D01*
X125469896Y-106504792D01*
X125620213Y-106655109D01*
X125792179Y-106780048D01*
X125792181Y-106780049D01*
X125792184Y-106780051D01*
X125981588Y-106876557D01*
X126183757Y-106942246D01*
X126393713Y-106975500D01*
X126393714Y-106975500D01*
X126606286Y-106975500D01*
X126606287Y-106975500D01*
X126816243Y-106942246D01*
X127018412Y-106876557D01*
X127207816Y-106780051D01*
X127260500Y-106741774D01*
X127379786Y-106655109D01*
X127379788Y-106655106D01*
X127379792Y-106655104D01*
X127530104Y-106504792D01*
X127530106Y-106504788D01*
X127530109Y-106504786D01*
X127655048Y-106332820D01*
X127655047Y-106332820D01*
X127655051Y-106332816D01*
X127751557Y-106143412D01*
X127817246Y-105941243D01*
X127850500Y-105731287D01*
X127850500Y-105268713D01*
X127822834Y-105094039D01*
X127831788Y-105024748D01*
X127857623Y-104986965D01*
X129248729Y-103595860D01*
X129248733Y-103595858D01*
X129335858Y-103508733D01*
X129370084Y-103457509D01*
X129404312Y-103406286D01*
X129451463Y-103292451D01*
X129475500Y-103171607D01*
X129475500Y-103048393D01*
X129475500Y-99327534D01*
X129495185Y-99260495D01*
X129547989Y-99214740D01*
X129586897Y-99204176D01*
X129627797Y-99199999D01*
X129794334Y-99144814D01*
X129943656Y-99052712D01*
X130067712Y-98928656D01*
X130159814Y-98779334D01*
X130214999Y-98612797D01*
X130225500Y-98510009D01*
X130225499Y-97609992D01*
X130214999Y-97507203D01*
X130159814Y-97340666D01*
X130067712Y-97191344D01*
X129943656Y-97067288D01*
X129794334Y-96975186D01*
X129627797Y-96920001D01*
X129627795Y-96920000D01*
X129525010Y-96909500D01*
X128174998Y-96909500D01*
X128174981Y-96909501D01*
X128072203Y-96920000D01*
X128072200Y-96920001D01*
X127905668Y-96975185D01*
X127905663Y-96975187D01*
X127756342Y-97067289D01*
X127632289Y-97191342D01*
X127540187Y-97340663D01*
X127540186Y-97340666D01*
X127485001Y-97507203D01*
X127485001Y-97507204D01*
X127485000Y-97507204D01*
X127474500Y-97609983D01*
X127474500Y-98510001D01*
X127474501Y-98510019D01*
X127485000Y-98612796D01*
X127485001Y-98612799D01*
X127540185Y-98779331D01*
X127540186Y-98779334D01*
X127632288Y-98928656D01*
X127756344Y-99052712D01*
X127905666Y-99144814D01*
X128072203Y-99199999D01*
X128113103Y-99204177D01*
X128177793Y-99230573D01*
X128217945Y-99287753D01*
X128224500Y-99327535D01*
X128224500Y-102799547D01*
X128204815Y-102866586D01*
X128188181Y-102887228D01*
X127021992Y-104053416D01*
X126960669Y-104086901D01*
X126895994Y-104083666D01*
X126816244Y-104057754D01*
X126816240Y-104057753D01*
X126654957Y-104032208D01*
X126606287Y-104024500D01*
X126393713Y-104024500D01*
X126345042Y-104032208D01*
X126183760Y-104057753D01*
X125981585Y-104123444D01*
X125792179Y-104219951D01*
X125620213Y-104344890D01*
X125469894Y-104495209D01*
X125469890Y-104495214D01*
X125350318Y-104659793D01*
X125294989Y-104702459D01*
X125225375Y-104708438D01*
X125163580Y-104675833D01*
X125149682Y-104659793D01*
X125030109Y-104495214D01*
X125030105Y-104495209D01*
X124879786Y-104344890D01*
X124707820Y-104219951D01*
X124518414Y-104123444D01*
X124518413Y-104123443D01*
X124518412Y-104123443D01*
X124316243Y-104057754D01*
X124316241Y-104057753D01*
X124316240Y-104057753D01*
X124154957Y-104032208D01*
X124106287Y-104024500D01*
X123893713Y-104024500D01*
X123845042Y-104032208D01*
X123683760Y-104057753D01*
X123481585Y-104123444D01*
X123292179Y-104219951D01*
X123120215Y-104344889D01*
X122981035Y-104484069D01*
X122919712Y-104517553D01*
X122850020Y-104512569D01*
X122794087Y-104470697D01*
X122787815Y-104461484D01*
X122692315Y-104306654D01*
X122568345Y-104182684D01*
X122419124Y-104090643D01*
X122419119Y-104090641D01*
X122252697Y-104035494D01*
X122252690Y-104035493D01*
X122149986Y-104025000D01*
X121750000Y-104025000D01*
X121750000Y-105095854D01*
X121683343Y-105057370D01*
X121562535Y-105025000D01*
X121437465Y-105025000D01*
X121316657Y-105057370D01*
X121250000Y-105095854D01*
X121250000Y-104025000D01*
X120850028Y-104025000D01*
X120850012Y-104025001D01*
X120747302Y-104035494D01*
X120580880Y-104090641D01*
X120580875Y-104090643D01*
X120431654Y-104182684D01*
X120307684Y-104306654D01*
X120215643Y-104455875D01*
X120215641Y-104455880D01*
X120160494Y-104622302D01*
X120160493Y-104622309D01*
X120150000Y-104725013D01*
X120150000Y-105250000D01*
X121095854Y-105250000D01*
X121057370Y-105316657D01*
X121025000Y-105437465D01*
X121025000Y-105562535D01*
X121057370Y-105683343D01*
X121095854Y-105750000D01*
X120150001Y-105750000D01*
X120150001Y-106274986D01*
X120160494Y-106377697D01*
X120215641Y-106544119D01*
X120215643Y-106544124D01*
X120307684Y-106693345D01*
X120431654Y-106817315D01*
X120580875Y-106909356D01*
X120580880Y-106909358D01*
X120747302Y-106964505D01*
X120747309Y-106964506D01*
X120850019Y-106974999D01*
X121249999Y-106974999D01*
X121250000Y-106974998D01*
X121250000Y-105904145D01*
X121316657Y-105942630D01*
X121437465Y-105975000D01*
X121562535Y-105975000D01*
X121683343Y-105942630D01*
X121750000Y-105904145D01*
X121750000Y-106974999D01*
X122149972Y-106974999D01*
X122149986Y-106974998D01*
X122252697Y-106964505D01*
X122419119Y-106909358D01*
X122419124Y-106909356D01*
X122568345Y-106817315D01*
X122692317Y-106693343D01*
X122787815Y-106538516D01*
X122839763Y-106491791D01*
X122908725Y-106480568D01*
X122972808Y-106508412D01*
X122981035Y-106515931D01*
X123120211Y-106655107D01*
X123199736Y-106712884D01*
X123242403Y-106768214D01*
X123248469Y-106789011D01*
X123268340Y-106888907D01*
X123268343Y-106888917D01*
X123324914Y-107025492D01*
X123357812Y-107074727D01*
X123357813Y-107074730D01*
X123407046Y-107148414D01*
X123407052Y-107148421D01*
X124981584Y-108722952D01*
X124981586Y-108722954D01*
X125011058Y-108742645D01*
X125055270Y-108772186D01*
X125104505Y-108805084D01*
X125104506Y-108805084D01*
X125104507Y-108805085D01*
X125104509Y-108805086D01*
X125161304Y-108828611D01*
X125241087Y-108861658D01*
X125241091Y-108861658D01*
X125241092Y-108861659D01*
X125386079Y-108890500D01*
X125386082Y-108890500D01*
X134003920Y-108890500D01*
X134101462Y-108871096D01*
X134148913Y-108861658D01*
X134285495Y-108805084D01*
X134334729Y-108772186D01*
X134334734Y-108772183D01*
X134359071Y-108755921D01*
X134408416Y-108722952D01*
X136134548Y-106996817D01*
X136195871Y-106963333D01*
X136222229Y-106960499D01*
X136250002Y-106960499D01*
X136250008Y-106960499D01*
X136352797Y-106949999D01*
X136519334Y-106894814D01*
X136668656Y-106802712D01*
X136792712Y-106678656D01*
X136884814Y-106529334D01*
X136884814Y-106529331D01*
X136888178Y-106523879D01*
X136940126Y-106477154D01*
X137009088Y-106465931D01*
X137073170Y-106493774D01*
X137081398Y-106501294D01*
X137220213Y-106640109D01*
X137392179Y-106765048D01*
X137392181Y-106765049D01*
X137392184Y-106765051D01*
X137581588Y-106861557D01*
X137783757Y-106927246D01*
X137993713Y-106960500D01*
X137993714Y-106960500D01*
X138206286Y-106960500D01*
X138206287Y-106960500D01*
X138416243Y-106927246D01*
X138416251Y-106927243D01*
X138420978Y-106926109D01*
X138421587Y-106928646D01*
X138480558Y-106926514D01*
X138537627Y-106958995D01*
X139531586Y-107952954D01*
X139561058Y-107972645D01*
X139605270Y-108002186D01*
X139654505Y-108035084D01*
X139654506Y-108035084D01*
X139654507Y-108035085D01*
X139654509Y-108035086D01*
X139791082Y-108091656D01*
X139791087Y-108091658D01*
X139791091Y-108091658D01*
X139791092Y-108091659D01*
X139936079Y-108120500D01*
X139936082Y-108120500D01*
X139936083Y-108120500D01*
X140083917Y-108120500D01*
X144180407Y-108120500D01*
X144247446Y-108140185D01*
X144287794Y-108182500D01*
X144381392Y-108344617D01*
X144521081Y-108526661D01*
X144521089Y-108526670D01*
X144683330Y-108688911D01*
X144683338Y-108688918D01*
X144865382Y-108828607D01*
X144865385Y-108828608D01*
X144865388Y-108828611D01*
X145064112Y-108943344D01*
X145064117Y-108943346D01*
X145064123Y-108943349D01*
X145155480Y-108981190D01*
X145276113Y-109031158D01*
X145497762Y-109090548D01*
X145725266Y-109120500D01*
X145725273Y-109120500D01*
X145954727Y-109120500D01*
X145954734Y-109120500D01*
X146182238Y-109090548D01*
X146403887Y-109031158D01*
X146615888Y-108943344D01*
X146814612Y-108828611D01*
X146996661Y-108688919D01*
X146996665Y-108688914D01*
X146996670Y-108688911D01*
X147158911Y-108526670D01*
X147158914Y-108526665D01*
X147158919Y-108526661D01*
X147298611Y-108344612D01*
X147413344Y-108145888D01*
X147501158Y-107933887D01*
X147560548Y-107712238D01*
X147590500Y-107484734D01*
X147590500Y-107255266D01*
X147560548Y-107027762D01*
X147501158Y-106806113D01*
X147432395Y-106640104D01*
X147413349Y-106594123D01*
X147413346Y-106594117D01*
X147413344Y-106594112D01*
X147298611Y-106395388D01*
X147298608Y-106395385D01*
X147298607Y-106395382D01*
X147158918Y-106213338D01*
X147158911Y-106213330D01*
X147139405Y-106193824D01*
X147105920Y-106132501D01*
X147110904Y-106062809D01*
X147152776Y-106006876D01*
X147171994Y-105995053D01*
X147189027Y-105986605D01*
X147337366Y-105867367D01*
X147337367Y-105867366D01*
X147456607Y-105719025D01*
X147456609Y-105719022D01*
X147541168Y-105548523D01*
X147587102Y-105363824D01*
X147590000Y-105321096D01*
X147590000Y-104620000D01*
X146273012Y-104620000D01*
X146305925Y-104562993D01*
X146340000Y-104435826D01*
X146340000Y-104304174D01*
X146305925Y-104177007D01*
X146273012Y-104120000D01*
X147590000Y-104120000D01*
X147590000Y-103418903D01*
X147587102Y-103376175D01*
X147541168Y-103191476D01*
X147456609Y-103020977D01*
X147456607Y-103020974D01*
X147337367Y-102872633D01*
X147337366Y-102872632D01*
X147189025Y-102753392D01*
X147189022Y-102753390D01*
X147018523Y-102668831D01*
X146833824Y-102622897D01*
X146791097Y-102620000D01*
X146090000Y-102620000D01*
X146090000Y-103936988D01*
X146032993Y-103904075D01*
X145905826Y-103870000D01*
X145774174Y-103870000D01*
X145647007Y-103904075D01*
X145590000Y-103936988D01*
X145590000Y-102620000D01*
X144888903Y-102620000D01*
X144846175Y-102622897D01*
X144661476Y-102668831D01*
X144490977Y-102753390D01*
X144490974Y-102753392D01*
X144342633Y-102872632D01*
X144342632Y-102872633D01*
X144223392Y-103020974D01*
X144223390Y-103020977D01*
X144138831Y-103191476D01*
X144092897Y-103376175D01*
X144090000Y-103418903D01*
X144090000Y-104120000D01*
X145406988Y-104120000D01*
X145374075Y-104177007D01*
X145340000Y-104304174D01*
X145340000Y-104435826D01*
X145374075Y-104562993D01*
X145406988Y-104620000D01*
X144090000Y-104620000D01*
X144090000Y-105321096D01*
X144092897Y-105363824D01*
X144138831Y-105548523D01*
X144223390Y-105719022D01*
X144223392Y-105719025D01*
X144342632Y-105867366D01*
X144342633Y-105867367D01*
X144490972Y-105986605D01*
X144508007Y-105995054D01*
X144559320Y-106042475D01*
X144576850Y-106110110D01*
X144555030Y-106176486D01*
X144540596Y-106193822D01*
X144521085Y-106213332D01*
X144521085Y-106213333D01*
X144381389Y-106395387D01*
X144332210Y-106480568D01*
X144295517Y-106544124D01*
X144287794Y-106557500D01*
X144237227Y-106605716D01*
X144180407Y-106619500D01*
X140372230Y-106619500D01*
X140305191Y-106599815D01*
X140284549Y-106583181D01*
X139486819Y-105785451D01*
X139453334Y-105724128D01*
X139450500Y-105697770D01*
X139450500Y-105203713D01*
X139437226Y-105119905D01*
X139417246Y-104993757D01*
X139351557Y-104791588D01*
X139255051Y-104602184D01*
X139255049Y-104602181D01*
X139255048Y-104602179D01*
X139130109Y-104430213D01*
X138979786Y-104279890D01*
X138807820Y-104154951D01*
X138618414Y-104058444D01*
X138618413Y-104058443D01*
X138618412Y-104058443D01*
X138416243Y-103992754D01*
X138416241Y-103992753D01*
X138416240Y-103992753D01*
X138254957Y-103967208D01*
X138206287Y-103959500D01*
X137993713Y-103959500D01*
X137945042Y-103967208D01*
X137783760Y-103992753D01*
X137783757Y-103992754D01*
X137597060Y-104053416D01*
X137581585Y-104058444D01*
X137392179Y-104154951D01*
X137220215Y-104279889D01*
X137081398Y-104418706D01*
X137020075Y-104452190D01*
X136950383Y-104447206D01*
X136894450Y-104405334D01*
X136888178Y-104396120D01*
X136792712Y-104241344D01*
X136668657Y-104117289D01*
X136668656Y-104117288D01*
X136536046Y-104035494D01*
X136519336Y-104025187D01*
X136519331Y-104025185D01*
X136517082Y-104024439D01*
X136435495Y-103997404D01*
X136378051Y-103957632D01*
X136351228Y-103893116D01*
X136350500Y-103879699D01*
X136350500Y-99082229D01*
X136370185Y-99015190D01*
X136386819Y-98994548D01*
X139932048Y-95449319D01*
X139993371Y-95415834D01*
X140019729Y-95413000D01*
X142308130Y-95413000D01*
X142375169Y-95432685D01*
X142420924Y-95485489D01*
X142425836Y-95497995D01*
X142470186Y-95631834D01*
X142562288Y-95781156D01*
X142686344Y-95905212D01*
X142835666Y-95997314D01*
X143002203Y-96052499D01*
X143104991Y-96063000D01*
X144030008Y-96062999D01*
X144030016Y-96062998D01*
X144030019Y-96062998D01*
X144086302Y-96057248D01*
X144132797Y-96052499D01*
X144299334Y-95997314D01*
X144448656Y-95905212D01*
X144572712Y-95781156D01*
X144664814Y-95631834D01*
X144719999Y-95465297D01*
X144730500Y-95362509D01*
X144730500Y-95362486D01*
X145530001Y-95362486D01*
X145540494Y-95465197D01*
X145595641Y-95631619D01*
X145595643Y-95631624D01*
X145687684Y-95780845D01*
X145811654Y-95904815D01*
X145960875Y-95996856D01*
X145960880Y-95996858D01*
X146127302Y-96052005D01*
X146127309Y-96052006D01*
X146230019Y-96062499D01*
X146442499Y-96062499D01*
X146942500Y-96062499D01*
X147154972Y-96062499D01*
X147154986Y-96062498D01*
X147257697Y-96052005D01*
X147424119Y-95996858D01*
X147424124Y-95996856D01*
X147573345Y-95904815D01*
X147697315Y-95780845D01*
X147789356Y-95631624D01*
X147789358Y-95631619D01*
X147844505Y-95465197D01*
X147844506Y-95465190D01*
X147854999Y-95362486D01*
X147855000Y-95362473D01*
X147855000Y-94912500D01*
X146942500Y-94912500D01*
X146942500Y-96062499D01*
X146442499Y-96062499D01*
X146442500Y-96062498D01*
X146442500Y-94912500D01*
X145530001Y-94912500D01*
X145530001Y-95362486D01*
X144730500Y-95362486D01*
X144730499Y-94612230D01*
X144750184Y-94545192D01*
X144766818Y-94524549D01*
X144783598Y-94507769D01*
X144842952Y-94448416D01*
X144870491Y-94407200D01*
X144919061Y-94334510D01*
X144919063Y-94334505D01*
X144919067Y-94334500D01*
X144925084Y-94325495D01*
X144981658Y-94188913D01*
X145010500Y-94043918D01*
X145010500Y-93962513D01*
X145530000Y-93962513D01*
X145530000Y-94412500D01*
X146442500Y-94412500D01*
X146942500Y-94412500D01*
X147854999Y-94412500D01*
X147854999Y-93962528D01*
X147854998Y-93962513D01*
X147844505Y-93859802D01*
X147789358Y-93693380D01*
X147789356Y-93693375D01*
X147697315Y-93544154D01*
X147573345Y-93420184D01*
X147424124Y-93328143D01*
X147424119Y-93328141D01*
X147257697Y-93272994D01*
X147257690Y-93272993D01*
X147154986Y-93262500D01*
X146942500Y-93262500D01*
X146942500Y-94412500D01*
X146442500Y-94412500D01*
X146442500Y-93262500D01*
X146230029Y-93262500D01*
X146230012Y-93262501D01*
X146127302Y-93272994D01*
X145960880Y-93328141D01*
X145960875Y-93328143D01*
X145811654Y-93420184D01*
X145687684Y-93544154D01*
X145595643Y-93693375D01*
X145595641Y-93693380D01*
X145540494Y-93859802D01*
X145540493Y-93859809D01*
X145530000Y-93962513D01*
X145010500Y-93962513D01*
X145010500Y-92964500D01*
X145030185Y-92897461D01*
X145082989Y-92851706D01*
X145134500Y-92840500D01*
X145622515Y-92840500D01*
X145682937Y-92828481D01*
X145743360Y-92816463D01*
X145743363Y-92816461D01*
X145743366Y-92816461D01*
X145776695Y-92802654D01*
X145776694Y-92802654D01*
X145776700Y-92802652D01*
X145857194Y-92769312D01*
X145910793Y-92733497D01*
X145959641Y-92700858D01*
X146046766Y-92613733D01*
X146046768Y-92613729D01*
X146233680Y-92426816D01*
X146295003Y-92393334D01*
X146321360Y-92390500D01*
X146375686Y-92390500D01*
X146375694Y-92390500D01*
X146412569Y-92387598D01*
X146412571Y-92387597D01*
X146412573Y-92387597D01*
X146454191Y-92375505D01*
X146570398Y-92341744D01*
X146711865Y-92258081D01*
X146828081Y-92141865D01*
X146911744Y-92000398D01*
X146957598Y-91842569D01*
X146960500Y-91805694D01*
X146960500Y-90649306D01*
X146957598Y-90612431D01*
X146911744Y-90454602D01*
X146828081Y-90313135D01*
X146828079Y-90313133D01*
X146828076Y-90313129D01*
X146711870Y-90196923D01*
X146711867Y-90196921D01*
X146711865Y-90196919D01*
X146711549Y-90196732D01*
X146711353Y-90196522D01*
X146705702Y-90192139D01*
X146706409Y-90191227D01*
X146663866Y-90145664D01*
X146651362Y-90076923D01*
X146678006Y-90012333D01*
X146705921Y-89988144D01*
X146705702Y-89987861D01*
X146710911Y-89983820D01*
X146711550Y-89983267D01*
X146711865Y-89983081D01*
X146828081Y-89866865D01*
X146911744Y-89725398D01*
X146953902Y-89580292D01*
X146957597Y-89567573D01*
X146957598Y-89567567D01*
X146958518Y-89555876D01*
X146960500Y-89530694D01*
X146960500Y-88374306D01*
X146957598Y-88337431D01*
X146911744Y-88179602D01*
X146828081Y-88038135D01*
X146828079Y-88038133D01*
X146828076Y-88038129D01*
X146711870Y-87921923D01*
X146711862Y-87921917D01*
X146570396Y-87838255D01*
X146570393Y-87838254D01*
X146412573Y-87792402D01*
X146412567Y-87792401D01*
X146375701Y-87789500D01*
X146375694Y-87789500D01*
X145944306Y-87789500D01*
X145944298Y-87789500D01*
X145907432Y-87792401D01*
X145907426Y-87792402D01*
X145749606Y-87838254D01*
X145749603Y-87838255D01*
X145608137Y-87921917D01*
X145608129Y-87921923D01*
X145491923Y-88038129D01*
X145491917Y-88038137D01*
X145408255Y-88179603D01*
X145408254Y-88179606D01*
X145362402Y-88337426D01*
X145362401Y-88337432D01*
X145359500Y-88374298D01*
X145359500Y-89530701D01*
X145362401Y-89567567D01*
X145362402Y-89567573D01*
X145408254Y-89725393D01*
X145408255Y-89725396D01*
X145491917Y-89866862D01*
X145496702Y-89873031D01*
X145495018Y-89874336D01*
X145523246Y-89926031D01*
X145518262Y-89995723D01*
X145486234Y-90043461D01*
X145460000Y-90067702D01*
X145460000Y-90333184D01*
X145442733Y-90396304D01*
X145408254Y-90454605D01*
X145408254Y-90454606D01*
X145362402Y-90612426D01*
X145362401Y-90612432D01*
X145359500Y-90649298D01*
X145359500Y-91103500D01*
X145339815Y-91170539D01*
X145287011Y-91216294D01*
X145235500Y-91227500D01*
X145184500Y-91227500D01*
X145117461Y-91207815D01*
X145071706Y-91155011D01*
X145060500Y-91103500D01*
X145060500Y-90649313D01*
X145060499Y-90649298D01*
X145057598Y-90612432D01*
X145057597Y-90612426D01*
X145011745Y-90454606D01*
X145011745Y-90454605D01*
X145011744Y-90454603D01*
X145011744Y-90454602D01*
X144977267Y-90396304D01*
X144960000Y-90333184D01*
X144960000Y-90067702D01*
X144933765Y-90043461D01*
X144897887Y-89983507D01*
X144900118Y-89913673D01*
X144924533Y-89873988D01*
X144923298Y-89873031D01*
X144928075Y-89866870D01*
X144928081Y-89866865D01*
X145011744Y-89725398D01*
X145053902Y-89580292D01*
X145057597Y-89567573D01*
X145057598Y-89567567D01*
X145058518Y-89555876D01*
X145060500Y-89530694D01*
X145060500Y-88374306D01*
X145057598Y-88337431D01*
X145011744Y-88179602D01*
X144928081Y-88038135D01*
X144928079Y-88038133D01*
X144928076Y-88038129D01*
X144811870Y-87921923D01*
X144811862Y-87921917D01*
X144670396Y-87838255D01*
X144670393Y-87838254D01*
X144512573Y-87792402D01*
X144512567Y-87792401D01*
X144475701Y-87789500D01*
X144475694Y-87789500D01*
X144442000Y-87789500D01*
X144374961Y-87769815D01*
X144329206Y-87717011D01*
X144318000Y-87665500D01*
X144318000Y-86985007D01*
X144337685Y-86917968D01*
X144376903Y-86879468D01*
X144448656Y-86835212D01*
X144572712Y-86711156D01*
X144664814Y-86561834D01*
X144719999Y-86395297D01*
X144730500Y-86292509D01*
X144730500Y-86292486D01*
X145530001Y-86292486D01*
X145540494Y-86395197D01*
X145595641Y-86561619D01*
X145595643Y-86561624D01*
X145687684Y-86710845D01*
X145811654Y-86834815D01*
X145960875Y-86926856D01*
X145960880Y-86926858D01*
X146127302Y-86982005D01*
X146127309Y-86982006D01*
X146230019Y-86992499D01*
X146442499Y-86992499D01*
X146942500Y-86992499D01*
X147154972Y-86992499D01*
X147154986Y-86992498D01*
X147257697Y-86982005D01*
X147424119Y-86926858D01*
X147424124Y-86926856D01*
X147573345Y-86834815D01*
X147697315Y-86710845D01*
X147789356Y-86561624D01*
X147789358Y-86561619D01*
X147844505Y-86395197D01*
X147844506Y-86395190D01*
X147854999Y-86292486D01*
X147855000Y-86292473D01*
X147855000Y-85842500D01*
X146942500Y-85842500D01*
X146942500Y-86992499D01*
X146442499Y-86992499D01*
X146442500Y-86992498D01*
X146442500Y-85842500D01*
X145530001Y-85842500D01*
X145530001Y-86292486D01*
X144730500Y-86292486D01*
X144730499Y-85577172D01*
X144730499Y-84892513D01*
X145530000Y-84892513D01*
X145530000Y-85342500D01*
X146442500Y-85342500D01*
X146942500Y-85342500D01*
X147854999Y-85342500D01*
X147854999Y-84892528D01*
X147854998Y-84892513D01*
X147844505Y-84789802D01*
X147789358Y-84623380D01*
X147789356Y-84623375D01*
X147697315Y-84474154D01*
X147573345Y-84350184D01*
X147424124Y-84258143D01*
X147424119Y-84258141D01*
X147257697Y-84202994D01*
X147257690Y-84202993D01*
X147154986Y-84192500D01*
X146942500Y-84192500D01*
X146942500Y-85342500D01*
X146442500Y-85342500D01*
X146442500Y-84192500D01*
X146230029Y-84192500D01*
X146230012Y-84192501D01*
X146127302Y-84202994D01*
X145960880Y-84258141D01*
X145960875Y-84258143D01*
X145811654Y-84350184D01*
X145687684Y-84474154D01*
X145595643Y-84623375D01*
X145595641Y-84623380D01*
X145540494Y-84789802D01*
X145540493Y-84789809D01*
X145530000Y-84892513D01*
X144730499Y-84892513D01*
X144730499Y-84892498D01*
X144730498Y-84892481D01*
X144719999Y-84789703D01*
X144719998Y-84789700D01*
X144664814Y-84623166D01*
X144572712Y-84473844D01*
X144448656Y-84349788D01*
X144448655Y-84349787D01*
X144376902Y-84305529D01*
X144330178Y-84253581D01*
X144318000Y-84199991D01*
X144318000Y-80466461D01*
X144336462Y-80401364D01*
X144366970Y-80351903D01*
X144418918Y-80305178D01*
X144472508Y-80293000D01*
X145480668Y-80293000D01*
X145547707Y-80312685D01*
X145582557Y-80348185D01*
X145582807Y-80347989D01*
X145584638Y-80350305D01*
X145586205Y-80351901D01*
X145587285Y-80353652D01*
X145587288Y-80353656D01*
X145711344Y-80477712D01*
X145860666Y-80569814D01*
X146027203Y-80624999D01*
X146129991Y-80635500D01*
X147530008Y-80635499D01*
X147632797Y-80624999D01*
X147799334Y-80569814D01*
X147948656Y-80477712D01*
X148072712Y-80353656D01*
X148164814Y-80204334D01*
X148219999Y-80037797D01*
X148230500Y-79935009D01*
X148230499Y-79009992D01*
X148219999Y-78907203D01*
X148164814Y-78740666D01*
X148072712Y-78591344D01*
X147948656Y-78467288D01*
X147823353Y-78390001D01*
X147799336Y-78375187D01*
X147799331Y-78375185D01*
X147752947Y-78359815D01*
X147632797Y-78320001D01*
X147632795Y-78320000D01*
X147530010Y-78309500D01*
X146129998Y-78309500D01*
X146129981Y-78309501D01*
X146027203Y-78320000D01*
X146027200Y-78320001D01*
X145860668Y-78375185D01*
X145860663Y-78375187D01*
X145711342Y-78467289D01*
X145587289Y-78591342D01*
X145499855Y-78733097D01*
X145447907Y-78779821D01*
X145394316Y-78792000D01*
X144472508Y-78792000D01*
X144405469Y-78772315D01*
X144366969Y-78733097D01*
X144322712Y-78661344D01*
X144198656Y-78537288D01*
X144049334Y-78445186D01*
X143882797Y-78390001D01*
X143882795Y-78390000D01*
X143780016Y-78379500D01*
X143780009Y-78379500D01*
X143029729Y-78379500D01*
X142962690Y-78359815D01*
X142942048Y-78343181D01*
X142390548Y-77791680D01*
X142357063Y-77730357D01*
X142362047Y-77660665D01*
X142403919Y-77604732D01*
X142469383Y-77580315D01*
X142478229Y-77579999D01*
X142829999Y-77579999D01*
X143330000Y-77579999D01*
X143779972Y-77579999D01*
X143779986Y-77579998D01*
X143882697Y-77569505D01*
X144049119Y-77514358D01*
X144049124Y-77514356D01*
X144198345Y-77422315D01*
X144322315Y-77298345D01*
X144414356Y-77149124D01*
X144414358Y-77149119D01*
X144469505Y-76982697D01*
X144469506Y-76982690D01*
X144479999Y-76879986D01*
X144480000Y-76879973D01*
X144480000Y-76809986D01*
X145430001Y-76809986D01*
X145440494Y-76912697D01*
X145495641Y-77079119D01*
X145495643Y-77079124D01*
X145587684Y-77228345D01*
X145711654Y-77352315D01*
X145860875Y-77444356D01*
X145860880Y-77444358D01*
X146027302Y-77499505D01*
X146027309Y-77499506D01*
X146130019Y-77509999D01*
X146579999Y-77509999D01*
X147080000Y-77509999D01*
X147529972Y-77509999D01*
X147529986Y-77509998D01*
X147632697Y-77499505D01*
X147799119Y-77444358D01*
X147799124Y-77444356D01*
X147948345Y-77352315D01*
X148072315Y-77228345D01*
X148164356Y-77079124D01*
X148164358Y-77079119D01*
X148219505Y-76912697D01*
X148219506Y-76912690D01*
X148229999Y-76809986D01*
X148230000Y-76809973D01*
X148230000Y-76597500D01*
X147080000Y-76597500D01*
X147080000Y-77509999D01*
X146579999Y-77509999D01*
X146580000Y-77509998D01*
X146580000Y-76597500D01*
X145430001Y-76597500D01*
X145430001Y-76809986D01*
X144480000Y-76809986D01*
X144480000Y-76667500D01*
X143330000Y-76667500D01*
X143330000Y-77579999D01*
X142829999Y-77579999D01*
X142830000Y-77579998D01*
X142830000Y-76167500D01*
X143330000Y-76167500D01*
X144479999Y-76167500D01*
X144479999Y-75955028D01*
X144479998Y-75955013D01*
X144473813Y-75894466D01*
X144473813Y-75894465D01*
X144472847Y-75885013D01*
X145430000Y-75885013D01*
X145430000Y-76097500D01*
X146580000Y-76097500D01*
X147080000Y-76097500D01*
X148229999Y-76097500D01*
X148229999Y-75885028D01*
X148229998Y-75885013D01*
X148219505Y-75782302D01*
X148164358Y-75615880D01*
X148164356Y-75615875D01*
X148072315Y-75466654D01*
X147948345Y-75342684D01*
X147799124Y-75250643D01*
X147799119Y-75250641D01*
X147632697Y-75195494D01*
X147632690Y-75195493D01*
X147529986Y-75185000D01*
X147080000Y-75185000D01*
X147080000Y-76097500D01*
X146580000Y-76097500D01*
X146580000Y-75185000D01*
X146130028Y-75185000D01*
X146130012Y-75185001D01*
X146027302Y-75195494D01*
X145860880Y-75250641D01*
X145860875Y-75250643D01*
X145711654Y-75342684D01*
X145587684Y-75466654D01*
X145495643Y-75615875D01*
X145495641Y-75615880D01*
X145440494Y-75782302D01*
X145440493Y-75782309D01*
X145430000Y-75885013D01*
X144472847Y-75885013D01*
X144469506Y-75852303D01*
X144414358Y-75685880D01*
X144414356Y-75685875D01*
X144322315Y-75536654D01*
X144198345Y-75412684D01*
X144049124Y-75320643D01*
X144049119Y-75320641D01*
X143882697Y-75265494D01*
X143882690Y-75265493D01*
X143779986Y-75255000D01*
X143330000Y-75255000D01*
X143330000Y-76167500D01*
X142830000Y-76167500D01*
X142830000Y-75255000D01*
X142380028Y-75255000D01*
X142380012Y-75255001D01*
X142277302Y-75265494D01*
X142110880Y-75320641D01*
X142110875Y-75320643D01*
X141961654Y-75412684D01*
X141837684Y-75536654D01*
X141745643Y-75685875D01*
X141745640Y-75685882D01*
X141732817Y-75724579D01*
X141693043Y-75782023D01*
X141628527Y-75808844D01*
X141559751Y-75796528D01*
X141546222Y-75788675D01*
X141519183Y-75770608D01*
X141519180Y-75770606D01*
X141519179Y-75770606D01*
X141495519Y-75760805D01*
X141455293Y-75733926D01*
X139943549Y-74222181D01*
X139910064Y-74160858D01*
X139915048Y-74091166D01*
X139956920Y-74035233D01*
X140022384Y-74010816D01*
X140031230Y-74010500D01*
X148635500Y-74010500D01*
X148702539Y-74030185D01*
X148748294Y-74082989D01*
X148759500Y-74134500D01*
X148759500Y-109385500D01*
X148739815Y-109452539D01*
X148687011Y-109498294D01*
X148635500Y-109509500D01*
X113384500Y-109509500D01*
X113317461Y-109489815D01*
X113271706Y-109437011D01*
X113260500Y-109385500D01*
X113260500Y-76893713D01*
X115524500Y-76893713D01*
X115524500Y-77106287D01*
X115531284Y-77149119D01*
X115556735Y-77309814D01*
X115557754Y-77316243D01*
X115620709Y-77509999D01*
X115623444Y-77518414D01*
X115719951Y-77707820D01*
X115844890Y-77879786D01*
X115995209Y-78030105D01*
X115995214Y-78030109D01*
X116159793Y-78149682D01*
X116202459Y-78205011D01*
X116208438Y-78274625D01*
X116175833Y-78336420D01*
X116159793Y-78350318D01*
X115995214Y-78469890D01*
X115995209Y-78469894D01*
X115844890Y-78620213D01*
X115719951Y-78792179D01*
X115623444Y-78981585D01*
X115557753Y-79183760D01*
X115528678Y-79367335D01*
X115524500Y-79393713D01*
X115524500Y-79606287D01*
X115557754Y-79816243D01*
X115619091Y-80005019D01*
X115623444Y-80018414D01*
X115719951Y-80207820D01*
X115844890Y-80379786D01*
X115995209Y-80530105D01*
X115995214Y-80530109D01*
X116160218Y-80649991D01*
X116202884Y-80705320D01*
X116208863Y-80774934D01*
X116176258Y-80836729D01*
X116160218Y-80850627D01*
X115995540Y-80970272D01*
X115995535Y-80970276D01*
X115845276Y-81120535D01*
X115845272Y-81120540D01*
X115720379Y-81292442D01*
X115623904Y-81481782D01*
X115558242Y-81683870D01*
X115558242Y-81683873D01*
X115547769Y-81750000D01*
X116595854Y-81750000D01*
X116557370Y-81816657D01*
X116525000Y-81937465D01*
X116525000Y-82062535D01*
X116557370Y-82183343D01*
X116595854Y-82250000D01*
X115547769Y-82250000D01*
X115558242Y-82316126D01*
X115558242Y-82316129D01*
X115623904Y-82518217D01*
X115720379Y-82707557D01*
X115845272Y-82879459D01*
X115845276Y-82879464D01*
X115984143Y-83018331D01*
X116017628Y-83079654D01*
X116012644Y-83149346D01*
X115970772Y-83205279D01*
X115961559Y-83211551D01*
X115806342Y-83307289D01*
X115682289Y-83431342D01*
X115590187Y-83580663D01*
X115590186Y-83580666D01*
X115535001Y-83747203D01*
X115535001Y-83747204D01*
X115535000Y-83747204D01*
X115524500Y-83849983D01*
X115524500Y-85150001D01*
X115524501Y-85150018D01*
X115535000Y-85252796D01*
X115535001Y-85252799D01*
X115578115Y-85382906D01*
X115590186Y-85419334D01*
X115682288Y-85568656D01*
X115806344Y-85692712D01*
X115955666Y-85784814D01*
X116122203Y-85839999D01*
X116224991Y-85850500D01*
X117775008Y-85850499D01*
X117877797Y-85839999D01*
X118044334Y-85784814D01*
X118193656Y-85692712D01*
X118317712Y-85568656D01*
X118409814Y-85419334D01*
X118464999Y-85252797D01*
X118475500Y-85150009D01*
X118475499Y-83849992D01*
X118464999Y-83747203D01*
X118409814Y-83580666D01*
X118317712Y-83431344D01*
X118193656Y-83307288D01*
X118044334Y-83215186D01*
X118044332Y-83215185D01*
X118038440Y-83211551D01*
X117991716Y-83159603D01*
X117980493Y-83090641D01*
X118008337Y-83026558D01*
X118015856Y-83018330D01*
X118154728Y-82879458D01*
X118279620Y-82707557D01*
X118376095Y-82518217D01*
X118441757Y-82316129D01*
X118441757Y-82316126D01*
X118452231Y-82250000D01*
X117404146Y-82250000D01*
X117442630Y-82183343D01*
X117475000Y-82062535D01*
X117475000Y-81937465D01*
X117442630Y-81816657D01*
X117404146Y-81750000D01*
X118452231Y-81750000D01*
X118441757Y-81683873D01*
X118441757Y-81683870D01*
X118376095Y-81481782D01*
X118279620Y-81292442D01*
X118154727Y-81120540D01*
X118154723Y-81120535D01*
X118004464Y-80970276D01*
X118004459Y-80970272D01*
X117839781Y-80850627D01*
X117797115Y-80795297D01*
X117791136Y-80725684D01*
X117823741Y-80663889D01*
X117839776Y-80649994D01*
X118004792Y-80530104D01*
X118155104Y-80379792D01*
X118155106Y-80379788D01*
X118155109Y-80379786D01*
X118280048Y-80207820D01*
X118280047Y-80207820D01*
X118280051Y-80207816D01*
X118376557Y-80018412D01*
X118442246Y-79816243D01*
X118475500Y-79606287D01*
X118475500Y-79393713D01*
X118442246Y-79183757D01*
X118376557Y-78981588D01*
X118280051Y-78792184D01*
X118280049Y-78792181D01*
X118280048Y-78792179D01*
X118155109Y-78620213D01*
X118004792Y-78469896D01*
X118001202Y-78467288D01*
X117840204Y-78350316D01*
X117797540Y-78294989D01*
X117791561Y-78225376D01*
X117824166Y-78163580D01*
X117840199Y-78149686D01*
X118004792Y-78030104D01*
X118155104Y-77879792D01*
X118155106Y-77879788D01*
X118155109Y-77879786D01*
X118280048Y-77707820D01*
X118280047Y-77707820D01*
X118280051Y-77707816D01*
X118376557Y-77518412D01*
X118442246Y-77316243D01*
X118475500Y-77106287D01*
X118475500Y-76893713D01*
X118442246Y-76683757D01*
X118376557Y-76481588D01*
X118280051Y-76292184D01*
X118280049Y-76292181D01*
X118280048Y-76292179D01*
X118155109Y-76120213D01*
X118004786Y-75969890D01*
X117832820Y-75844951D01*
X117643414Y-75748444D01*
X117643413Y-75748443D01*
X117643412Y-75748443D01*
X117441243Y-75682754D01*
X117441241Y-75682753D01*
X117441240Y-75682753D01*
X117279957Y-75657208D01*
X117231287Y-75649500D01*
X116768713Y-75649500D01*
X116720042Y-75657208D01*
X116558760Y-75682753D01*
X116558757Y-75682754D01*
X116430034Y-75724579D01*
X116356585Y-75748444D01*
X116167179Y-75844951D01*
X115995213Y-75969890D01*
X115844890Y-76120213D01*
X115719951Y-76292179D01*
X115623444Y-76481585D01*
X115557753Y-76683760D01*
X115533721Y-76835496D01*
X115524500Y-76893713D01*
X113260500Y-76893713D01*
X113260500Y-74134500D01*
X113280185Y-74067461D01*
X113332989Y-74021706D01*
X113384500Y-74010500D01*
X135078770Y-74010500D01*
X135145809Y-74030185D01*
G37*
%TD.AperFunction*%
%TD*%
M02*
