%TF.GenerationSoftware,KiCad,Pcbnew,10.0.5*%
%TF.CreationDate,2026-08-24T16:38:39-07:00*%
%TF.ProjectId,sparc_pcb_v2,73706172-635f-4706-9362-5f76322e6b69,rev?*%
%TF.SameCoordinates,Original*%
%TF.FileFunction,Other,Comment*%
%FSLAX46Y46*%
G04 Gerber Fmt 4.6, Leading zero omitted, Abs format (unit mm)*
G04 Created by KiCad (PCBNEW 10.0.5) date 2026-08-24 16:38:39*
%MOMM*%
%LPD*%
G01*
G04 APERTURE LIST*
%ADD10C,0.150000*%
G04 APERTURE END LIST*
D10*
X118832142Y-61702438D02*
X118832142Y-59702438D01*
X119974999Y-61702438D02*
X119117856Y-60559580D01*
X119974999Y-59702438D02*
X118832142Y-60845295D01*
X120832142Y-60654819D02*
X121498809Y-60654819D01*
X121784523Y-61702438D02*
X120832142Y-61702438D01*
X120832142Y-61702438D02*
X120832142Y-59702438D01*
X120832142Y-59702438D02*
X121784523Y-59702438D01*
X122641666Y-60654819D02*
X123308333Y-60654819D01*
X123594047Y-61702438D02*
X122641666Y-61702438D01*
X122641666Y-61702438D02*
X122641666Y-59702438D01*
X122641666Y-59702438D02*
X123594047Y-59702438D01*
X124451190Y-61702438D02*
X124451190Y-59702438D01*
X124451190Y-59702438D02*
X125213095Y-59702438D01*
X125213095Y-59702438D02*
X125403571Y-59797676D01*
X125403571Y-59797676D02*
X125498809Y-59892914D01*
X125498809Y-59892914D02*
X125594047Y-60083390D01*
X125594047Y-60083390D02*
X125594047Y-60369104D01*
X125594047Y-60369104D02*
X125498809Y-60559580D01*
X125498809Y-60559580D02*
X125403571Y-60654819D01*
X125403571Y-60654819D02*
X125213095Y-60750057D01*
X125213095Y-60750057D02*
X124451190Y-60750057D01*
X126451190Y-60940533D02*
X127975000Y-60940533D01*
X129308332Y-59702438D02*
X129689285Y-59702438D01*
X129689285Y-59702438D02*
X129879761Y-59797676D01*
X129879761Y-59797676D02*
X130070237Y-59988152D01*
X130070237Y-59988152D02*
X130165475Y-60369104D01*
X130165475Y-60369104D02*
X130165475Y-61035771D01*
X130165475Y-61035771D02*
X130070237Y-61416723D01*
X130070237Y-61416723D02*
X129879761Y-61607200D01*
X129879761Y-61607200D02*
X129689285Y-61702438D01*
X129689285Y-61702438D02*
X129308332Y-61702438D01*
X129308332Y-61702438D02*
X129117856Y-61607200D01*
X129117856Y-61607200D02*
X128927380Y-61416723D01*
X128927380Y-61416723D02*
X128832142Y-61035771D01*
X128832142Y-61035771D02*
X128832142Y-60369104D01*
X128832142Y-60369104D02*
X128927380Y-59988152D01*
X128927380Y-59988152D02*
X129117856Y-59797676D01*
X129117856Y-59797676D02*
X129308332Y-59702438D01*
X131022618Y-59702438D02*
X131022618Y-61321485D01*
X131022618Y-61321485D02*
X131117856Y-61511961D01*
X131117856Y-61511961D02*
X131213094Y-61607200D01*
X131213094Y-61607200D02*
X131403570Y-61702438D01*
X131403570Y-61702438D02*
X131784523Y-61702438D01*
X131784523Y-61702438D02*
X131974999Y-61607200D01*
X131974999Y-61607200D02*
X132070237Y-61511961D01*
X132070237Y-61511961D02*
X132165475Y-61321485D01*
X132165475Y-61321485D02*
X132165475Y-59702438D01*
X132832142Y-59702438D02*
X133974999Y-59702438D01*
X133403570Y-61702438D02*
X133403570Y-59702438D01*
X135975000Y-59702438D02*
X137308333Y-59702438D01*
X137308333Y-59702438D02*
X135975000Y-61702438D01*
X135975000Y-61702438D02*
X137308333Y-61702438D01*
X138451190Y-59702438D02*
X138832143Y-59702438D01*
X138832143Y-59702438D02*
X139022619Y-59797676D01*
X139022619Y-59797676D02*
X139213095Y-59988152D01*
X139213095Y-59988152D02*
X139308333Y-60369104D01*
X139308333Y-60369104D02*
X139308333Y-61035771D01*
X139308333Y-61035771D02*
X139213095Y-61416723D01*
X139213095Y-61416723D02*
X139022619Y-61607200D01*
X139022619Y-61607200D02*
X138832143Y-61702438D01*
X138832143Y-61702438D02*
X138451190Y-61702438D01*
X138451190Y-61702438D02*
X138260714Y-61607200D01*
X138260714Y-61607200D02*
X138070238Y-61416723D01*
X138070238Y-61416723D02*
X137975000Y-61035771D01*
X137975000Y-61035771D02*
X137975000Y-60369104D01*
X137975000Y-60369104D02*
X138070238Y-59988152D01*
X138070238Y-59988152D02*
X138260714Y-59797676D01*
X138260714Y-59797676D02*
X138451190Y-59702438D01*
X140165476Y-61702438D02*
X140165476Y-59702438D01*
X140165476Y-59702438D02*
X141308333Y-61702438D01*
X141308333Y-61702438D02*
X141308333Y-59702438D01*
X142260714Y-60654819D02*
X142927381Y-60654819D01*
X143213095Y-61702438D02*
X142260714Y-61702438D01*
X142260714Y-61702438D02*
X142260714Y-59702438D01*
X142260714Y-59702438D02*
X143213095Y-59702438D01*
X128263095Y-70434104D02*
X128739285Y-70434104D01*
X128167857Y-70719819D02*
X128501190Y-69719819D01*
X128501190Y-69719819D02*
X128834523Y-70719819D01*
X129167857Y-70053152D02*
X129167857Y-70719819D01*
X129167857Y-70148390D02*
X129215476Y-70100771D01*
X129215476Y-70100771D02*
X129310714Y-70053152D01*
X129310714Y-70053152D02*
X129453571Y-70053152D01*
X129453571Y-70053152D02*
X129548809Y-70100771D01*
X129548809Y-70100771D02*
X129596428Y-70196009D01*
X129596428Y-70196009D02*
X129596428Y-70719819D01*
X129929762Y-70053152D02*
X130310714Y-70053152D01*
X130072619Y-69719819D02*
X130072619Y-70576961D01*
X130072619Y-70576961D02*
X130120238Y-70672200D01*
X130120238Y-70672200D02*
X130215476Y-70719819D01*
X130215476Y-70719819D02*
X130310714Y-70719819D01*
X131025000Y-70672200D02*
X130929762Y-70719819D01*
X130929762Y-70719819D02*
X130739286Y-70719819D01*
X130739286Y-70719819D02*
X130644048Y-70672200D01*
X130644048Y-70672200D02*
X130596429Y-70576961D01*
X130596429Y-70576961D02*
X130596429Y-70196009D01*
X130596429Y-70196009D02*
X130644048Y-70100771D01*
X130644048Y-70100771D02*
X130739286Y-70053152D01*
X130739286Y-70053152D02*
X130929762Y-70053152D01*
X130929762Y-70053152D02*
X131025000Y-70100771D01*
X131025000Y-70100771D02*
X131072619Y-70196009D01*
X131072619Y-70196009D02*
X131072619Y-70291247D01*
X131072619Y-70291247D02*
X130596429Y-70386485D01*
X131501191Y-70053152D02*
X131501191Y-70719819D01*
X131501191Y-70148390D02*
X131548810Y-70100771D01*
X131548810Y-70100771D02*
X131644048Y-70053152D01*
X131644048Y-70053152D02*
X131786905Y-70053152D01*
X131786905Y-70053152D02*
X131882143Y-70100771D01*
X131882143Y-70100771D02*
X131929762Y-70196009D01*
X131929762Y-70196009D02*
X131929762Y-70719819D01*
X132405953Y-70053152D02*
X132405953Y-70719819D01*
X132405953Y-70148390D02*
X132453572Y-70100771D01*
X132453572Y-70100771D02*
X132548810Y-70053152D01*
X132548810Y-70053152D02*
X132691667Y-70053152D01*
X132691667Y-70053152D02*
X132786905Y-70100771D01*
X132786905Y-70100771D02*
X132834524Y-70196009D01*
X132834524Y-70196009D02*
X132834524Y-70719819D01*
X133739286Y-70719819D02*
X133739286Y-70196009D01*
X133739286Y-70196009D02*
X133691667Y-70100771D01*
X133691667Y-70100771D02*
X133596429Y-70053152D01*
X133596429Y-70053152D02*
X133405953Y-70053152D01*
X133405953Y-70053152D02*
X133310715Y-70100771D01*
X133739286Y-70672200D02*
X133644048Y-70719819D01*
X133644048Y-70719819D02*
X133405953Y-70719819D01*
X133405953Y-70719819D02*
X133310715Y-70672200D01*
X133310715Y-70672200D02*
X133263096Y-70576961D01*
X133263096Y-70576961D02*
X133263096Y-70481723D01*
X133263096Y-70481723D02*
X133310715Y-70386485D01*
X133310715Y-70386485D02*
X133405953Y-70338866D01*
X133405953Y-70338866D02*
X133644048Y-70338866D01*
X133644048Y-70338866D02*
X133739286Y-70291247D01*
M02*
