%TF.GenerationSoftware,KiCad,Pcbnew,10.0.5*%
%TF.CreationDate,2026-08-24T16:38:39-07:00*%
%TF.ProjectId,sparc_pcb_v2,73706172-635f-4706-9362-5f76322e6b69,rev?*%
%TF.SameCoordinates,Original*%
%TF.FileFunction,AssemblyDrawing,Bot*%
%FSLAX46Y46*%
G04 Gerber Fmt 4.6, Leading zero omitted, Abs format (unit mm)*
G04 Created by KiCad (PCBNEW 10.0.5) date 2026-08-24 16:38:39*
%MOMM*%
%LPD*%
G01*
G04 APERTURE LIST*
%ADD10C,0.150000*%
%ADD11C,0.120000*%
%ADD12C,0.100000*%
G04 APERTURE END LIST*
D10*
X145104166Y-79804819D02*
X145675594Y-79804819D01*
X145389880Y-79804819D02*
X145389880Y-78804819D01*
X145389880Y-78804819D02*
X145485118Y-78947676D01*
X145485118Y-78947676D02*
X145580356Y-79042914D01*
X145580356Y-79042914D02*
X145675594Y-79090533D01*
X144675594Y-79138152D02*
X144675594Y-80138152D01*
X144199404Y-79661961D02*
X144151785Y-79757200D01*
X144151785Y-79757200D02*
X144056547Y-79804819D01*
X144675594Y-79661961D02*
X144627975Y-79757200D01*
X144627975Y-79757200D02*
X144532737Y-79804819D01*
X144532737Y-79804819D02*
X144342261Y-79804819D01*
X144342261Y-79804819D02*
X144247023Y-79757200D01*
X144247023Y-79757200D02*
X144199404Y-79661961D01*
X144199404Y-79661961D02*
X144199404Y-79138152D01*
X143294642Y-79281009D02*
X143627975Y-79281009D01*
X143627975Y-79804819D02*
X143627975Y-78804819D01*
X143627975Y-78804819D02*
X143151785Y-78804819D01*
D11*
X144570832Y-77787664D02*
X144608928Y-77825760D01*
X144608928Y-77825760D02*
X144723213Y-77863855D01*
X144723213Y-77863855D02*
X144799404Y-77863855D01*
X144799404Y-77863855D02*
X144913690Y-77825760D01*
X144913690Y-77825760D02*
X144989880Y-77749569D01*
X144989880Y-77749569D02*
X145027975Y-77673379D01*
X145027975Y-77673379D02*
X145066071Y-77520998D01*
X145066071Y-77520998D02*
X145066071Y-77406712D01*
X145066071Y-77406712D02*
X145027975Y-77254331D01*
X145027975Y-77254331D02*
X144989880Y-77178140D01*
X144989880Y-77178140D02*
X144913690Y-77101950D01*
X144913690Y-77101950D02*
X144799404Y-77063855D01*
X144799404Y-77063855D02*
X144723213Y-77063855D01*
X144723213Y-77063855D02*
X144608928Y-77101950D01*
X144608928Y-77101950D02*
X144570832Y-77140045D01*
X144113690Y-77406712D02*
X144189880Y-77368617D01*
X144189880Y-77368617D02*
X144227975Y-77330521D01*
X144227975Y-77330521D02*
X144266071Y-77254331D01*
X144266071Y-77254331D02*
X144266071Y-77216236D01*
X144266071Y-77216236D02*
X144227975Y-77140045D01*
X144227975Y-77140045D02*
X144189880Y-77101950D01*
X144189880Y-77101950D02*
X144113690Y-77063855D01*
X144113690Y-77063855D02*
X143961309Y-77063855D01*
X143961309Y-77063855D02*
X143885118Y-77101950D01*
X143885118Y-77101950D02*
X143847023Y-77140045D01*
X143847023Y-77140045D02*
X143808928Y-77216236D01*
X143808928Y-77216236D02*
X143808928Y-77254331D01*
X143808928Y-77254331D02*
X143847023Y-77330521D01*
X143847023Y-77330521D02*
X143885118Y-77368617D01*
X143885118Y-77368617D02*
X143961309Y-77406712D01*
X143961309Y-77406712D02*
X144113690Y-77406712D01*
X144113690Y-77406712D02*
X144189880Y-77444807D01*
X144189880Y-77444807D02*
X144227975Y-77482902D01*
X144227975Y-77482902D02*
X144266071Y-77559093D01*
X144266071Y-77559093D02*
X144266071Y-77711474D01*
X144266071Y-77711474D02*
X144227975Y-77787664D01*
X144227975Y-77787664D02*
X144189880Y-77825760D01*
X144189880Y-77825760D02*
X144113690Y-77863855D01*
X144113690Y-77863855D02*
X143961309Y-77863855D01*
X143961309Y-77863855D02*
X143885118Y-77825760D01*
X143885118Y-77825760D02*
X143847023Y-77787664D01*
X143847023Y-77787664D02*
X143808928Y-77711474D01*
X143808928Y-77711474D02*
X143808928Y-77559093D01*
X143808928Y-77559093D02*
X143847023Y-77482902D01*
X143847023Y-77482902D02*
X143885118Y-77444807D01*
X143885118Y-77444807D02*
X143961309Y-77406712D01*
D10*
X126928571Y-97288152D02*
X126928571Y-97954819D01*
X127166666Y-96907200D02*
X127404761Y-97621485D01*
X127404761Y-97621485D02*
X126785714Y-97621485D01*
X126404761Y-97859580D02*
X126357142Y-97907200D01*
X126357142Y-97907200D02*
X126404761Y-97954819D01*
X126404761Y-97954819D02*
X126452380Y-97907200D01*
X126452380Y-97907200D02*
X126404761Y-97859580D01*
X126404761Y-97859580D02*
X126404761Y-97954819D01*
X126023809Y-96954819D02*
X125357143Y-96954819D01*
X125357143Y-96954819D02*
X125785714Y-97954819D01*
X124976190Y-97954819D02*
X124976190Y-96954819D01*
X124880952Y-97573866D02*
X124595238Y-97954819D01*
X124595238Y-97288152D02*
X124976190Y-97669104D01*
D11*
X121683332Y-95863855D02*
X121949999Y-95482902D01*
X122140475Y-95863855D02*
X122140475Y-95063855D01*
X122140475Y-95063855D02*
X121835713Y-95063855D01*
X121835713Y-95063855D02*
X121759523Y-95101950D01*
X121759523Y-95101950D02*
X121721428Y-95140045D01*
X121721428Y-95140045D02*
X121683332Y-95216236D01*
X121683332Y-95216236D02*
X121683332Y-95330521D01*
X121683332Y-95330521D02*
X121721428Y-95406712D01*
X121721428Y-95406712D02*
X121759523Y-95444807D01*
X121759523Y-95444807D02*
X121835713Y-95482902D01*
X121835713Y-95482902D02*
X122140475Y-95482902D01*
X121302380Y-95863855D02*
X121149999Y-95863855D01*
X121149999Y-95863855D02*
X121073809Y-95825760D01*
X121073809Y-95825760D02*
X121035713Y-95787664D01*
X121035713Y-95787664D02*
X120959523Y-95673379D01*
X120959523Y-95673379D02*
X120921428Y-95520998D01*
X120921428Y-95520998D02*
X120921428Y-95216236D01*
X120921428Y-95216236D02*
X120959523Y-95140045D01*
X120959523Y-95140045D02*
X120997618Y-95101950D01*
X120997618Y-95101950D02*
X121073809Y-95063855D01*
X121073809Y-95063855D02*
X121226190Y-95063855D01*
X121226190Y-95063855D02*
X121302380Y-95101950D01*
X121302380Y-95101950D02*
X121340475Y-95140045D01*
X121340475Y-95140045D02*
X121378571Y-95216236D01*
X121378571Y-95216236D02*
X121378571Y-95406712D01*
X121378571Y-95406712D02*
X121340475Y-95482902D01*
X121340475Y-95482902D02*
X121302380Y-95520998D01*
X121302380Y-95520998D02*
X121226190Y-95559093D01*
X121226190Y-95559093D02*
X121073809Y-95559093D01*
X121073809Y-95559093D02*
X120997618Y-95520998D01*
X120997618Y-95520998D02*
X120959523Y-95482902D01*
X120959523Y-95482902D02*
X120921428Y-95406712D01*
D10*
X138048808Y-94696009D02*
X137715475Y-94696009D01*
X137572618Y-95219819D02*
X138048808Y-95219819D01*
X138048808Y-95219819D02*
X138048808Y-94219819D01*
X138048808Y-94219819D02*
X137572618Y-94219819D01*
X137191665Y-95172200D02*
X137048808Y-95219819D01*
X137048808Y-95219819D02*
X136810713Y-95219819D01*
X136810713Y-95219819D02*
X136715475Y-95172200D01*
X136715475Y-95172200D02*
X136667856Y-95124580D01*
X136667856Y-95124580D02*
X136620237Y-95029342D01*
X136620237Y-95029342D02*
X136620237Y-94934104D01*
X136620237Y-94934104D02*
X136667856Y-94838866D01*
X136667856Y-94838866D02*
X136715475Y-94791247D01*
X136715475Y-94791247D02*
X136810713Y-94743628D01*
X136810713Y-94743628D02*
X137001189Y-94696009D01*
X137001189Y-94696009D02*
X137096427Y-94648390D01*
X137096427Y-94648390D02*
X137144046Y-94600771D01*
X137144046Y-94600771D02*
X137191665Y-94505533D01*
X137191665Y-94505533D02*
X137191665Y-94410295D01*
X137191665Y-94410295D02*
X137144046Y-94315057D01*
X137144046Y-94315057D02*
X137096427Y-94267438D01*
X137096427Y-94267438D02*
X137001189Y-94219819D01*
X137001189Y-94219819D02*
X136763094Y-94219819D01*
X136763094Y-94219819D02*
X136620237Y-94267438D01*
X136191665Y-95219819D02*
X136191665Y-94219819D01*
X136191665Y-94219819D02*
X135810713Y-94219819D01*
X135810713Y-94219819D02*
X135715475Y-94267438D01*
X135715475Y-94267438D02*
X135667856Y-94315057D01*
X135667856Y-94315057D02*
X135620237Y-94410295D01*
X135620237Y-94410295D02*
X135620237Y-94553152D01*
X135620237Y-94553152D02*
X135667856Y-94648390D01*
X135667856Y-94648390D02*
X135715475Y-94696009D01*
X135715475Y-94696009D02*
X135810713Y-94743628D01*
X135810713Y-94743628D02*
X136191665Y-94743628D01*
X135286903Y-94219819D02*
X134667856Y-94219819D01*
X134667856Y-94219819D02*
X135001189Y-94600771D01*
X135001189Y-94600771D02*
X134858332Y-94600771D01*
X134858332Y-94600771D02*
X134763094Y-94648390D01*
X134763094Y-94648390D02*
X134715475Y-94696009D01*
X134715475Y-94696009D02*
X134667856Y-94791247D01*
X134667856Y-94791247D02*
X134667856Y-95029342D01*
X134667856Y-95029342D02*
X134715475Y-95124580D01*
X134715475Y-95124580D02*
X134763094Y-95172200D01*
X134763094Y-95172200D02*
X134858332Y-95219819D01*
X134858332Y-95219819D02*
X135144046Y-95219819D01*
X135144046Y-95219819D02*
X135239284Y-95172200D01*
X135239284Y-95172200D02*
X135286903Y-95124580D01*
X134286903Y-94315057D02*
X134239284Y-94267438D01*
X134239284Y-94267438D02*
X134144046Y-94219819D01*
X134144046Y-94219819D02*
X133905951Y-94219819D01*
X133905951Y-94219819D02*
X133810713Y-94267438D01*
X133810713Y-94267438D02*
X133763094Y-94315057D01*
X133763094Y-94315057D02*
X133715475Y-94410295D01*
X133715475Y-94410295D02*
X133715475Y-94505533D01*
X133715475Y-94505533D02*
X133763094Y-94648390D01*
X133763094Y-94648390D02*
X134334522Y-95219819D01*
X134334522Y-95219819D02*
X133715475Y-95219819D01*
X133286903Y-94838866D02*
X132524999Y-94838866D01*
X132144046Y-94219819D02*
X131905951Y-95219819D01*
X131905951Y-95219819D02*
X131715475Y-94505533D01*
X131715475Y-94505533D02*
X131524999Y-95219819D01*
X131524999Y-95219819D02*
X131286904Y-94219819D01*
X130334523Y-95219819D02*
X130667856Y-94743628D01*
X130905951Y-95219819D02*
X130905951Y-94219819D01*
X130905951Y-94219819D02*
X130524999Y-94219819D01*
X130524999Y-94219819D02*
X130429761Y-94267438D01*
X130429761Y-94267438D02*
X130382142Y-94315057D01*
X130382142Y-94315057D02*
X130334523Y-94410295D01*
X130334523Y-94410295D02*
X130334523Y-94553152D01*
X130334523Y-94553152D02*
X130382142Y-94648390D01*
X130382142Y-94648390D02*
X130429761Y-94696009D01*
X130429761Y-94696009D02*
X130524999Y-94743628D01*
X130524999Y-94743628D02*
X130905951Y-94743628D01*
X129715475Y-94219819D02*
X129524999Y-94219819D01*
X129524999Y-94219819D02*
X129429761Y-94267438D01*
X129429761Y-94267438D02*
X129334523Y-94362676D01*
X129334523Y-94362676D02*
X129286904Y-94553152D01*
X129286904Y-94553152D02*
X129286904Y-94886485D01*
X129286904Y-94886485D02*
X129334523Y-95076961D01*
X129334523Y-95076961D02*
X129429761Y-95172200D01*
X129429761Y-95172200D02*
X129524999Y-95219819D01*
X129524999Y-95219819D02*
X129715475Y-95219819D01*
X129715475Y-95219819D02*
X129810713Y-95172200D01*
X129810713Y-95172200D02*
X129905951Y-95076961D01*
X129905951Y-95076961D02*
X129953570Y-94886485D01*
X129953570Y-94886485D02*
X129953570Y-94553152D01*
X129953570Y-94553152D02*
X129905951Y-94362676D01*
X129905951Y-94362676D02*
X129810713Y-94267438D01*
X129810713Y-94267438D02*
X129715475Y-94219819D01*
X128667856Y-94219819D02*
X128477380Y-94219819D01*
X128477380Y-94219819D02*
X128382142Y-94267438D01*
X128382142Y-94267438D02*
X128286904Y-94362676D01*
X128286904Y-94362676D02*
X128239285Y-94553152D01*
X128239285Y-94553152D02*
X128239285Y-94886485D01*
X128239285Y-94886485D02*
X128286904Y-95076961D01*
X128286904Y-95076961D02*
X128382142Y-95172200D01*
X128382142Y-95172200D02*
X128477380Y-95219819D01*
X128477380Y-95219819D02*
X128667856Y-95219819D01*
X128667856Y-95219819D02*
X128763094Y-95172200D01*
X128763094Y-95172200D02*
X128858332Y-95076961D01*
X128858332Y-95076961D02*
X128905951Y-94886485D01*
X128905951Y-94886485D02*
X128905951Y-94553152D01*
X128905951Y-94553152D02*
X128858332Y-94362676D01*
X128858332Y-94362676D02*
X128763094Y-94267438D01*
X128763094Y-94267438D02*
X128667856Y-94219819D01*
X127810713Y-95219819D02*
X127810713Y-94219819D01*
X127810713Y-94219819D02*
X127477380Y-94934104D01*
X127477380Y-94934104D02*
X127144047Y-94219819D01*
X127144047Y-94219819D02*
X127144047Y-95219819D01*
X126667856Y-94838866D02*
X125905952Y-94838866D01*
X125524999Y-94219819D02*
X124905952Y-94219819D01*
X124905952Y-94219819D02*
X125239285Y-94600771D01*
X125239285Y-94600771D02*
X125096428Y-94600771D01*
X125096428Y-94600771D02*
X125001190Y-94648390D01*
X125001190Y-94648390D02*
X124953571Y-94696009D01*
X124953571Y-94696009D02*
X124905952Y-94791247D01*
X124905952Y-94791247D02*
X124905952Y-95029342D01*
X124905952Y-95029342D02*
X124953571Y-95124580D01*
X124953571Y-95124580D02*
X125001190Y-95172200D01*
X125001190Y-95172200D02*
X125096428Y-95219819D01*
X125096428Y-95219819D02*
X125382142Y-95219819D01*
X125382142Y-95219819D02*
X125477380Y-95172200D01*
X125477380Y-95172200D02*
X125524999Y-95124580D01*
X124524999Y-94315057D02*
X124477380Y-94267438D01*
X124477380Y-94267438D02*
X124382142Y-94219819D01*
X124382142Y-94219819D02*
X124144047Y-94219819D01*
X124144047Y-94219819D02*
X124048809Y-94267438D01*
X124048809Y-94267438D02*
X124001190Y-94315057D01*
X124001190Y-94315057D02*
X123953571Y-94410295D01*
X123953571Y-94410295D02*
X123953571Y-94505533D01*
X123953571Y-94505533D02*
X124001190Y-94648390D01*
X124001190Y-94648390D02*
X124572618Y-95219819D01*
X124572618Y-95219819D02*
X123953571Y-95219819D01*
X131786904Y-82719819D02*
X131786904Y-83529342D01*
X131786904Y-83529342D02*
X131739285Y-83624580D01*
X131739285Y-83624580D02*
X131691666Y-83672200D01*
X131691666Y-83672200D02*
X131596428Y-83719819D01*
X131596428Y-83719819D02*
X131405952Y-83719819D01*
X131405952Y-83719819D02*
X131310714Y-83672200D01*
X131310714Y-83672200D02*
X131263095Y-83624580D01*
X131263095Y-83624580D02*
X131215476Y-83529342D01*
X131215476Y-83529342D02*
X131215476Y-82719819D01*
X130786904Y-82815057D02*
X130739285Y-82767438D01*
X130739285Y-82767438D02*
X130644047Y-82719819D01*
X130644047Y-82719819D02*
X130405952Y-82719819D01*
X130405952Y-82719819D02*
X130310714Y-82767438D01*
X130310714Y-82767438D02*
X130263095Y-82815057D01*
X130263095Y-82815057D02*
X130215476Y-82910295D01*
X130215476Y-82910295D02*
X130215476Y-83005533D01*
X130215476Y-83005533D02*
X130263095Y-83148390D01*
X130263095Y-83148390D02*
X130834523Y-83719819D01*
X130834523Y-83719819D02*
X130215476Y-83719819D01*
X126428571Y-100118152D02*
X126428571Y-100784819D01*
X126666666Y-99737200D02*
X126904761Y-100451485D01*
X126904761Y-100451485D02*
X126285714Y-100451485D01*
X125904761Y-100689580D02*
X125857142Y-100737200D01*
X125857142Y-100737200D02*
X125904761Y-100784819D01*
X125904761Y-100784819D02*
X125952380Y-100737200D01*
X125952380Y-100737200D02*
X125904761Y-100689580D01*
X125904761Y-100689580D02*
X125904761Y-100784819D01*
X125523809Y-99784819D02*
X124857143Y-99784819D01*
X124857143Y-99784819D02*
X125285714Y-100784819D01*
X124476190Y-100784819D02*
X124476190Y-99784819D01*
X124380952Y-100403866D02*
X124095238Y-100784819D01*
X124095238Y-100118152D02*
X124476190Y-100499104D01*
D11*
X121583332Y-98863855D02*
X121849999Y-98482902D01*
X122040475Y-98863855D02*
X122040475Y-98063855D01*
X122040475Y-98063855D02*
X121735713Y-98063855D01*
X121735713Y-98063855D02*
X121659523Y-98101950D01*
X121659523Y-98101950D02*
X121621428Y-98140045D01*
X121621428Y-98140045D02*
X121583332Y-98216236D01*
X121583332Y-98216236D02*
X121583332Y-98330521D01*
X121583332Y-98330521D02*
X121621428Y-98406712D01*
X121621428Y-98406712D02*
X121659523Y-98444807D01*
X121659523Y-98444807D02*
X121735713Y-98482902D01*
X121735713Y-98482902D02*
X122040475Y-98482902D01*
X121126190Y-98406712D02*
X121202380Y-98368617D01*
X121202380Y-98368617D02*
X121240475Y-98330521D01*
X121240475Y-98330521D02*
X121278571Y-98254331D01*
X121278571Y-98254331D02*
X121278571Y-98216236D01*
X121278571Y-98216236D02*
X121240475Y-98140045D01*
X121240475Y-98140045D02*
X121202380Y-98101950D01*
X121202380Y-98101950D02*
X121126190Y-98063855D01*
X121126190Y-98063855D02*
X120973809Y-98063855D01*
X120973809Y-98063855D02*
X120897618Y-98101950D01*
X120897618Y-98101950D02*
X120859523Y-98140045D01*
X120859523Y-98140045D02*
X120821428Y-98216236D01*
X120821428Y-98216236D02*
X120821428Y-98254331D01*
X120821428Y-98254331D02*
X120859523Y-98330521D01*
X120859523Y-98330521D02*
X120897618Y-98368617D01*
X120897618Y-98368617D02*
X120973809Y-98406712D01*
X120973809Y-98406712D02*
X121126190Y-98406712D01*
X121126190Y-98406712D02*
X121202380Y-98444807D01*
X121202380Y-98444807D02*
X121240475Y-98482902D01*
X121240475Y-98482902D02*
X121278571Y-98559093D01*
X121278571Y-98559093D02*
X121278571Y-98711474D01*
X121278571Y-98711474D02*
X121240475Y-98787664D01*
X121240475Y-98787664D02*
X121202380Y-98825760D01*
X121202380Y-98825760D02*
X121126190Y-98863855D01*
X121126190Y-98863855D02*
X120973809Y-98863855D01*
X120973809Y-98863855D02*
X120897618Y-98825760D01*
X120897618Y-98825760D02*
X120859523Y-98787664D01*
X120859523Y-98787664D02*
X120821428Y-98711474D01*
X120821428Y-98711474D02*
X120821428Y-98559093D01*
X120821428Y-98559093D02*
X120859523Y-98482902D01*
X120859523Y-98482902D02*
X120897618Y-98444807D01*
X120897618Y-98444807D02*
X120973809Y-98406712D01*
%TO.C,C8*%
D12*
X142837500Y-76700000D02*
X146037500Y-76700000D01*
X146037500Y-78300000D01*
X142837500Y-78300000D01*
X142837500Y-76700000D01*
%TO.C,R9*%
X119950000Y-94700000D02*
X123150000Y-94700000D01*
X123150000Y-96300000D01*
X119950000Y-96300000D01*
X119950000Y-94700000D01*
%TO.C,U2*%
X122025000Y-93025000D02*
X122025000Y-67525000D01*
X139525000Y-73745000D02*
X140025000Y-73245000D01*
X140025000Y-67525000D02*
X122025000Y-67525000D01*
X140025000Y-67525000D02*
X140025000Y-73245000D01*
X140025000Y-74245000D02*
X139525000Y-73745000D01*
X140025000Y-74245000D02*
X140025000Y-93025000D01*
X140025000Y-93025000D02*
X122025000Y-93025000D01*
%TO.C,R8*%
X119850000Y-97700000D02*
X123050000Y-97700000D01*
X123050000Y-99300000D01*
X119850000Y-99300000D01*
X119850000Y-97700000D01*
%TD*%
M02*
