%TF.GenerationSoftware,KiCad,Pcbnew,10.0.5*%
%TF.CreationDate,2026-08-24T16:38:39-07:00*%
%TF.ProjectId,sparc_pcb_v2,73706172-635f-4706-9362-5f76322e6b69,rev?*%
%TF.SameCoordinates,Original*%
%TF.FileFunction,Paste,Bot*%
%TF.FilePolarity,Positive*%
%FSLAX46Y46*%
G04 Gerber Fmt 4.6, Leading zero omitted, Abs format (unit mm)*
G04 Created by KiCad (PCBNEW 10.0.5) date 2026-08-24 16:38:39*
%MOMM*%
%LPD*%
G01*
G04 APERTURE LIST*
G04 Aperture macros list*
%AMRoundRect*
0 Rectangle with rounded corners*
0 $1 Rounding radius*
0 $2 $3 $4 $5 $6 $7 $8 $9 X,Y pos of 4 corners*
0 Add a 4 corners polygon primitive as box body*
4,1,4,$2,$3,$4,$5,$6,$7,$8,$9,$2,$3,0*
0 Add four circle primitives for the rounded corners*
1,1,$1+$1,$2,$3*
1,1,$1+$1,$4,$5*
1,1,$1+$1,$6,$7*
1,1,$1+$1,$8,$9*
0 Add four rect primitives between the rounded corners*
20,1,$1+$1,$2,$3,$4,$5,0*
20,1,$1+$1,$4,$5,$6,$7,0*
20,1,$1+$1,$6,$7,$8,$9,0*
20,1,$1+$1,$8,$9,$2,$3,0*%
G04 Aperture macros list end*
%ADD10RoundRect,0.250000X0.412500X0.650000X-0.412500X0.650000X-0.412500X-0.650000X0.412500X-0.650000X0*%
%ADD11RoundRect,0.250000X0.400000X0.625000X-0.400000X0.625000X-0.400000X-0.625000X0.400000X-0.625000X0*%
%ADD12R,1.500000X0.900000*%
%ADD13R,0.900000X1.500000*%
%ADD14R,1.050000X1.050000*%
G04 APERTURE END LIST*
D10*
%TO.C,C8*%
X146000000Y-77500000D03*
X142875000Y-77500000D03*
%TD*%
D11*
%TO.C,R9*%
X123100000Y-95500000D03*
X120000000Y-95500000D03*
%TD*%
D12*
%TO.C,U2*%
X139775000Y-75015000D03*
X139775000Y-76285000D03*
X139775000Y-77555000D03*
X139775000Y-78825000D03*
X139775000Y-80095000D03*
X139775000Y-81365000D03*
X139775000Y-82635000D03*
X139775000Y-83905000D03*
X139775000Y-85175000D03*
X139775000Y-86445000D03*
X139775000Y-87715000D03*
X139775000Y-88985000D03*
X139775000Y-90255000D03*
X139775000Y-91525000D03*
D13*
X136735000Y-92775000D03*
X135465000Y-92775000D03*
X134195000Y-92775000D03*
X132925000Y-92775000D03*
X131655000Y-92775000D03*
X130385000Y-92775000D03*
X129115000Y-92775000D03*
X127845000Y-92775000D03*
X126575000Y-92775000D03*
X125305000Y-92775000D03*
D12*
X122275000Y-91525000D03*
X122275000Y-90255000D03*
X122275000Y-88985000D03*
X122275000Y-87715000D03*
X122275000Y-86445000D03*
X122275000Y-85175000D03*
X122275000Y-83905000D03*
X122275000Y-82635000D03*
X122275000Y-81365000D03*
X122275000Y-80095000D03*
X122275000Y-78825000D03*
X122275000Y-77555000D03*
X122275000Y-76285000D03*
X122275000Y-75015000D03*
D14*
X133230000Y-83880000D03*
X133230000Y-82355000D03*
X133230000Y-80830000D03*
X131705000Y-83880000D03*
X131705000Y-82355000D03*
X131705000Y-80830000D03*
X130180000Y-83880000D03*
X130180000Y-82355000D03*
X130180000Y-80830000D03*
%TD*%
D11*
%TO.C,R8*%
X123000000Y-98500000D03*
X119900000Y-98500000D03*
%TD*%
M02*
