%TF.GenerationSoftware,KiCad,Pcbnew,10.0.5*%
%TF.CreationDate,2026-08-24T16:38:39-07:00*%
%TF.ProjectId,sparc_pcb_v2,73706172-635f-4706-9362-5f76322e6b69,rev?*%
%TF.SameCoordinates,Original*%
%TF.FileFunction,Legend,Bot*%
%TF.FilePolarity,Positive*%
%FSLAX46Y46*%
G04 Gerber Fmt 4.6, Leading zero omitted, Abs format (unit mm)*
G04 Created by KiCad (PCBNEW 10.0.5) date 2026-08-24 16:38:39*
%MOMM*%
%LPD*%
G01*
G04 APERTURE LIST*
%ADD10C,0.150000*%
%ADD11C,0.120000*%
G04 APERTURE END LIST*
D10*
X144604166Y-76009580D02*
X144651785Y-76057200D01*
X144651785Y-76057200D02*
X144794642Y-76104819D01*
X144794642Y-76104819D02*
X144889880Y-76104819D01*
X144889880Y-76104819D02*
X145032737Y-76057200D01*
X145032737Y-76057200D02*
X145127975Y-75961961D01*
X145127975Y-75961961D02*
X145175594Y-75866723D01*
X145175594Y-75866723D02*
X145223213Y-75676247D01*
X145223213Y-75676247D02*
X145223213Y-75533390D01*
X145223213Y-75533390D02*
X145175594Y-75342914D01*
X145175594Y-75342914D02*
X145127975Y-75247676D01*
X145127975Y-75247676D02*
X145032737Y-75152438D01*
X145032737Y-75152438D02*
X144889880Y-75104819D01*
X144889880Y-75104819D02*
X144794642Y-75104819D01*
X144794642Y-75104819D02*
X144651785Y-75152438D01*
X144651785Y-75152438D02*
X144604166Y-75200057D01*
X144032737Y-75533390D02*
X144127975Y-75485771D01*
X144127975Y-75485771D02*
X144175594Y-75438152D01*
X144175594Y-75438152D02*
X144223213Y-75342914D01*
X144223213Y-75342914D02*
X144223213Y-75295295D01*
X144223213Y-75295295D02*
X144175594Y-75200057D01*
X144175594Y-75200057D02*
X144127975Y-75152438D01*
X144127975Y-75152438D02*
X144032737Y-75104819D01*
X144032737Y-75104819D02*
X143842261Y-75104819D01*
X143842261Y-75104819D02*
X143747023Y-75152438D01*
X143747023Y-75152438D02*
X143699404Y-75200057D01*
X143699404Y-75200057D02*
X143651785Y-75295295D01*
X143651785Y-75295295D02*
X143651785Y-75342914D01*
X143651785Y-75342914D02*
X143699404Y-75438152D01*
X143699404Y-75438152D02*
X143747023Y-75485771D01*
X143747023Y-75485771D02*
X143842261Y-75533390D01*
X143842261Y-75533390D02*
X144032737Y-75533390D01*
X144032737Y-75533390D02*
X144127975Y-75581009D01*
X144127975Y-75581009D02*
X144175594Y-75628628D01*
X144175594Y-75628628D02*
X144223213Y-75723866D01*
X144223213Y-75723866D02*
X144223213Y-75914342D01*
X144223213Y-75914342D02*
X144175594Y-76009580D01*
X144175594Y-76009580D02*
X144127975Y-76057200D01*
X144127975Y-76057200D02*
X144032737Y-76104819D01*
X144032737Y-76104819D02*
X143842261Y-76104819D01*
X143842261Y-76104819D02*
X143747023Y-76057200D01*
X143747023Y-76057200D02*
X143699404Y-76009580D01*
X143699404Y-76009580D02*
X143651785Y-75914342D01*
X143651785Y-75914342D02*
X143651785Y-75723866D01*
X143651785Y-75723866D02*
X143699404Y-75628628D01*
X143699404Y-75628628D02*
X143747023Y-75581009D01*
X143747023Y-75581009D02*
X143842261Y-75533390D01*
X125666666Y-96454819D02*
X125999999Y-95978628D01*
X126238094Y-96454819D02*
X126238094Y-95454819D01*
X126238094Y-95454819D02*
X125857142Y-95454819D01*
X125857142Y-95454819D02*
X125761904Y-95502438D01*
X125761904Y-95502438D02*
X125714285Y-95550057D01*
X125714285Y-95550057D02*
X125666666Y-95645295D01*
X125666666Y-95645295D02*
X125666666Y-95788152D01*
X125666666Y-95788152D02*
X125714285Y-95883390D01*
X125714285Y-95883390D02*
X125761904Y-95931009D01*
X125761904Y-95931009D02*
X125857142Y-95978628D01*
X125857142Y-95978628D02*
X126238094Y-95978628D01*
X125190475Y-96454819D02*
X124999999Y-96454819D01*
X124999999Y-96454819D02*
X124904761Y-96407200D01*
X124904761Y-96407200D02*
X124857142Y-96359580D01*
X124857142Y-96359580D02*
X124761904Y-96216723D01*
X124761904Y-96216723D02*
X124714285Y-96026247D01*
X124714285Y-96026247D02*
X124714285Y-95645295D01*
X124714285Y-95645295D02*
X124761904Y-95550057D01*
X124761904Y-95550057D02*
X124809523Y-95502438D01*
X124809523Y-95502438D02*
X124904761Y-95454819D01*
X124904761Y-95454819D02*
X125095237Y-95454819D01*
X125095237Y-95454819D02*
X125190475Y-95502438D01*
X125190475Y-95502438D02*
X125238094Y-95550057D01*
X125238094Y-95550057D02*
X125285713Y-95645295D01*
X125285713Y-95645295D02*
X125285713Y-95883390D01*
X125285713Y-95883390D02*
X125238094Y-95978628D01*
X125238094Y-95978628D02*
X125190475Y-96026247D01*
X125190475Y-96026247D02*
X125095237Y-96073866D01*
X125095237Y-96073866D02*
X124904761Y-96073866D01*
X124904761Y-96073866D02*
X124809523Y-96026247D01*
X124809523Y-96026247D02*
X124761904Y-95978628D01*
X124761904Y-95978628D02*
X124714285Y-95883390D01*
X141089819Y-90933095D02*
X141899342Y-90933095D01*
X141899342Y-90933095D02*
X141994580Y-90980714D01*
X141994580Y-90980714D02*
X142042200Y-91028333D01*
X142042200Y-91028333D02*
X142089819Y-91123571D01*
X142089819Y-91123571D02*
X142089819Y-91314047D01*
X142089819Y-91314047D02*
X142042200Y-91409285D01*
X142042200Y-91409285D02*
X141994580Y-91456904D01*
X141994580Y-91456904D02*
X141899342Y-91504523D01*
X141899342Y-91504523D02*
X141089819Y-91504523D01*
X141185057Y-91933095D02*
X141137438Y-91980714D01*
X141137438Y-91980714D02*
X141089819Y-92075952D01*
X141089819Y-92075952D02*
X141089819Y-92314047D01*
X141089819Y-92314047D02*
X141137438Y-92409285D01*
X141137438Y-92409285D02*
X141185057Y-92456904D01*
X141185057Y-92456904D02*
X141280295Y-92504523D01*
X141280295Y-92504523D02*
X141375533Y-92504523D01*
X141375533Y-92504523D02*
X141518390Y-92456904D01*
X141518390Y-92456904D02*
X142089819Y-91885476D01*
X142089819Y-91885476D02*
X142089819Y-92504523D01*
X125666666Y-99454819D02*
X125999999Y-98978628D01*
X126238094Y-99454819D02*
X126238094Y-98454819D01*
X126238094Y-98454819D02*
X125857142Y-98454819D01*
X125857142Y-98454819D02*
X125761904Y-98502438D01*
X125761904Y-98502438D02*
X125714285Y-98550057D01*
X125714285Y-98550057D02*
X125666666Y-98645295D01*
X125666666Y-98645295D02*
X125666666Y-98788152D01*
X125666666Y-98788152D02*
X125714285Y-98883390D01*
X125714285Y-98883390D02*
X125761904Y-98931009D01*
X125761904Y-98931009D02*
X125857142Y-98978628D01*
X125857142Y-98978628D02*
X126238094Y-98978628D01*
X125095237Y-98883390D02*
X125190475Y-98835771D01*
X125190475Y-98835771D02*
X125238094Y-98788152D01*
X125238094Y-98788152D02*
X125285713Y-98692914D01*
X125285713Y-98692914D02*
X125285713Y-98645295D01*
X125285713Y-98645295D02*
X125238094Y-98550057D01*
X125238094Y-98550057D02*
X125190475Y-98502438D01*
X125190475Y-98502438D02*
X125095237Y-98454819D01*
X125095237Y-98454819D02*
X124904761Y-98454819D01*
X124904761Y-98454819D02*
X124809523Y-98502438D01*
X124809523Y-98502438D02*
X124761904Y-98550057D01*
X124761904Y-98550057D02*
X124714285Y-98645295D01*
X124714285Y-98645295D02*
X124714285Y-98692914D01*
X124714285Y-98692914D02*
X124761904Y-98788152D01*
X124761904Y-98788152D02*
X124809523Y-98835771D01*
X124809523Y-98835771D02*
X124904761Y-98883390D01*
X124904761Y-98883390D02*
X125095237Y-98883390D01*
X125095237Y-98883390D02*
X125190475Y-98931009D01*
X125190475Y-98931009D02*
X125238094Y-98978628D01*
X125238094Y-98978628D02*
X125285713Y-99073866D01*
X125285713Y-99073866D02*
X125285713Y-99264342D01*
X125285713Y-99264342D02*
X125238094Y-99359580D01*
X125238094Y-99359580D02*
X125190475Y-99407200D01*
X125190475Y-99407200D02*
X125095237Y-99454819D01*
X125095237Y-99454819D02*
X124904761Y-99454819D01*
X124904761Y-99454819D02*
X124809523Y-99407200D01*
X124809523Y-99407200D02*
X124761904Y-99359580D01*
X124761904Y-99359580D02*
X124714285Y-99264342D01*
X124714285Y-99264342D02*
X124714285Y-99073866D01*
X124714285Y-99073866D02*
X124761904Y-98978628D01*
X124761904Y-98978628D02*
X124809523Y-98931009D01*
X124809523Y-98931009D02*
X124904761Y-98883390D01*
%TO.C,C8*%
D11*
X145148752Y-76590000D02*
X143726248Y-76590000D01*
X145148752Y-78410000D02*
X143726248Y-78410000D01*
%TO.C,R9*%
X122277064Y-94590000D02*
X120822936Y-94590000D01*
X122277064Y-96410000D02*
X120822936Y-96410000D01*
%TO.C,U2*%
X121905000Y-67405000D02*
X121905000Y-73820000D01*
X121905000Y-92365000D02*
X121905000Y-93145000D01*
X121905000Y-93145000D02*
X122905000Y-93145000D01*
X140145000Y-67405000D02*
X121905000Y-67405000D01*
X140145000Y-67405000D02*
X140145000Y-73565000D01*
X140145000Y-92365000D02*
X140145000Y-93145000D01*
X140145000Y-93145000D02*
X139145000Y-93145000D01*
X140150000Y-74290000D02*
X140650000Y-74290000D01*
X140150000Y-73790000D01*
X140150000Y-74290000D01*
G36*
X140650000Y-74290000D02*
G01*
X140150000Y-74290000D01*
X140150000Y-73790000D01*
X140650000Y-74290000D01*
G37*
%TO.C,R8*%
X122177064Y-97590000D02*
X120722936Y-97590000D01*
X122177064Y-99410000D02*
X120722936Y-99410000D01*
%TD*%
M02*
